<mxfile host="app.diagrams.net" agent="Mozilla/5.0 (Windows NT 10.0; Win64; x64) AppleWebKit/537.36 (KHTML, like Gecko) Chrome/134.0.0.0 Safari/537.36 Edg/134.0.0.0" version="26.1.0">
  <diagram id="C5RBs43oDa-KdzZeNtuy" name="Page-1">
    <mxGraphModel dx="2444" dy="3029" grid="1" gridSize="10" guides="1" tooltips="1" connect="1" arrows="1" fold="1" page="1" pageScale="1" pageWidth="827" pageHeight="1169" background="#ffffff" math="0" shadow="0">
      <root>
        <mxCell id="WIyWlLk6GJQsqaUBKTNV-0" />
        <mxCell id="WIyWlLk6GJQsqaUBKTNV-1" parent="WIyWlLk6GJQsqaUBKTNV-0" />
        <mxCell id="Pg9ErtlGWTGq2y22SoNs-60" value="" style="rounded=0;whiteSpace=wrap;html=1;strokeColor=#d6b656;fillColor=default;" vertex="1" parent="WIyWlLk6GJQsqaUBKTNV-1">
          <mxGeometry x="-40" y="-800" width="1000" height="440" as="geometry" />
        </mxCell>
        <mxCell id="Pg9ErtlGWTGq2y22SoNs-24" value="" style="rounded=0;whiteSpace=wrap;html=1;strokeColor=#00CC00;" vertex="1" parent="WIyWlLk6GJQsqaUBKTNV-1">
          <mxGeometry x="65" y="-320" width="990" height="170" as="geometry" />
        </mxCell>
        <mxCell id="Pg9ErtlGWTGq2y22SoNs-2" value="" style="rounded=0;whiteSpace=wrap;html=1;strokeColor=#3399FF;" vertex="1" parent="WIyWlLk6GJQsqaUBKTNV-1">
          <mxGeometry x="-140" y="-40" width="1340" height="2160" as="geometry" />
        </mxCell>
        <mxCell id="SaCOgG8UOvRfNBqPI8a1-1" value="Map" style="swimlane;fontStyle=1;align=center;verticalAlign=top;childLayout=stackLayout;horizontal=1;startSize=26;horizontalStack=0;resizeParent=1;resizeParentMax=0;resizeLast=0;collapsible=1;marginBottom=0;whiteSpace=wrap;html=1;fillColor=light-dark(#7EA6E0,var(--ge-dark-color, #121212));" parent="WIyWlLk6GJQsqaUBKTNV-1" vertex="1">
          <mxGeometry x="320" y="200" width="200" height="260" as="geometry" />
        </mxCell>
        <mxCell id="SaCOgG8UOvRfNBqPI8a1-2" value="&lt;div style=&quot;line-height: 150%;&quot;&gt;- Player player&lt;div&gt;- SafariMap safariMap&lt;/div&gt;&lt;div&gt;- Level level&lt;/div&gt;&lt;div&gt;- DayNightCycle dayNightCycle&lt;/div&gt;&lt;div&gt;- MiniMap miniMap&lt;/div&gt;&lt;/div&gt;" style="text;strokeColor=none;fillColor=none;align=left;verticalAlign=top;spacingLeft=4;spacingRight=4;overflow=hidden;rotatable=0;points=[[0,0.5],[1,0.5]];portConstraint=eastwest;whiteSpace=wrap;html=1;" parent="SaCOgG8UOvRfNBqPI8a1-1" vertex="1">
          <mxGeometry y="26" width="200" height="94" as="geometry" />
        </mxCell>
        <mxCell id="SaCOgG8UOvRfNBqPI8a1-3" value="" style="line;strokeWidth=1;fillColor=none;align=left;verticalAlign=middle;spacingTop=-1;spacingLeft=3;spacingRight=3;rotatable=0;labelPosition=right;points=[];portConstraint=eastwest;strokeColor=inherit;" parent="SaCOgG8UOvRfNBqPI8a1-1" vertex="1">
          <mxGeometry y="120" width="200" height="8" as="geometry" />
        </mxCell>
        <mxCell id="SaCOgG8UOvRfNBqPI8a1-4" value="&lt;div style=&quot;line-height: 150%;&quot;&gt;+ initializeMap()&lt;div&gt;+ loadMap()&lt;/div&gt;&lt;div&gt;+ addEntity()&lt;/div&gt;&lt;div&gt;+ removeEntity()&lt;/div&gt;&lt;div&gt;+ updateMap()&lt;/div&gt;&lt;div&gt;&lt;p style=&quot;margin: 0px 0px 0px 4px;&quot;&gt;&lt;span style=&quot;background-color: transparent; color: light-dark(rgb(0, 0, 0), rgb(255, 255, 255));&quot;&gt;+&amp;nbsp;&lt;/span&gt;&lt;span style=&quot;background-color: transparent; color: light-dark(rgb(0, 0, 0), rgb(255, 255, 255));&quot;&gt;zoomIn(): void&lt;/span&gt;&lt;/p&gt;&lt;p style=&quot;margin: 0px 0px 0px 4px;&quot;&gt;&lt;span style=&quot;background-color: transparent; color: light-dark(rgb(0, 0, 0), rgb(255, 255, 255));&quot;&gt;+&amp;nbsp;&lt;/span&gt;&lt;span style=&quot;background-color: transparent; color: light-dark(rgb(0, 0, 0), rgb(255, 255, 255));&quot;&gt;zoomOut(): void&lt;/span&gt;&lt;/p&gt;&lt;/div&gt;&lt;/div&gt;" style="text;strokeColor=none;fillColor=none;align=left;verticalAlign=top;spacingLeft=4;spacingRight=4;overflow=hidden;rotatable=0;points=[[0,0.5],[1,0.5]];portConstraint=eastwest;whiteSpace=wrap;html=1;" parent="SaCOgG8UOvRfNBqPI8a1-1" vertex="1">
          <mxGeometry y="128" width="200" height="132" as="geometry" />
        </mxCell>
        <mxCell id="SaCOgG8UOvRfNBqPI8a1-10" style="edgeStyle=none;curved=1;rounded=0;orthogonalLoop=1;jettySize=auto;html=1;exitX=0.5;exitY=1;exitDx=0;exitDy=0;entryX=0.5;entryY=0;entryDx=0;entryDy=0;fontSize=12;startSize=8;endSize=8;endArrow=none;startFill=0;" parent="WIyWlLk6GJQsqaUBKTNV-1" source="SaCOgG8UOvRfNBqPI8a1-6" target="SaCOgG8UOvRfNBqPI8a1-1" edge="1">
          <mxGeometry relative="1" as="geometry" />
        </mxCell>
        <mxCell id="SaCOgG8UOvRfNBqPI8a1-6" value="EventManager" style="swimlane;fontStyle=1;align=center;verticalAlign=top;childLayout=stackLayout;horizontal=1;startSize=26;horizontalStack=0;resizeParent=1;resizeParentMax=0;resizeLast=0;collapsible=1;marginBottom=0;whiteSpace=wrap;html=1;fillColor=light-dark(#D4E1F5,var(--ge-dark-color, #121212));" parent="WIyWlLk6GJQsqaUBKTNV-1" vertex="1">
          <mxGeometry x="340" width="160" height="100" as="geometry">
            <mxRectangle x="340" width="120" height="30" as="alternateBounds" />
          </mxGeometry>
        </mxCell>
        <mxCell id="SaCOgG8UOvRfNBqPI8a1-7" value="&lt;div style=&quot;line-height: 150%;&quot;&gt;+ triggerRandomEvent()&lt;div&gt;+ handlePoachersAtteck&lt;/div&gt;&lt;div&gt;+ handleTouristSurge()&lt;/div&gt;&lt;/div&gt;" style="text;strokeColor=none;fillColor=none;align=left;verticalAlign=top;spacingLeft=4;spacingRight=4;overflow=hidden;rotatable=0;points=[[0,0.5],[1,0.5]];portConstraint=eastwest;whiteSpace=wrap;html=1;" parent="SaCOgG8UOvRfNBqPI8a1-6" vertex="1">
          <mxGeometry y="26" width="160" height="74" as="geometry" />
        </mxCell>
        <mxCell id="SaCOgG8UOvRfNBqPI8a1-11" value="DayNightCycle" style="swimlane;fontStyle=1;align=center;verticalAlign=top;childLayout=stackLayout;horizontal=1;startSize=26;horizontalStack=0;resizeParent=1;resizeParentMax=0;resizeLast=0;collapsible=1;marginBottom=0;whiteSpace=wrap;html=1;fillColor=light-dark(#A9C4EB,var(--ge-dark-color, #121212));" parent="WIyWlLk6GJQsqaUBKTNV-1" vertex="1">
          <mxGeometry x="720" y="80" width="160" height="110" as="geometry" />
        </mxCell>
        <mxCell id="SaCOgG8UOvRfNBqPI8a1-12" value="- currentTime: Date-Time" style="text;strokeColor=none;fillColor=none;align=left;verticalAlign=top;spacingLeft=4;spacingRight=4;overflow=hidden;rotatable=0;points=[[0,0.5],[1,0.5]];portConstraint=eastwest;whiteSpace=wrap;html=1;" parent="SaCOgG8UOvRfNBqPI8a1-11" vertex="1">
          <mxGeometry y="26" width="160" height="26" as="geometry" />
        </mxCell>
        <mxCell id="SaCOgG8UOvRfNBqPI8a1-13" value="" style="line;strokeWidth=1;fillColor=none;align=left;verticalAlign=middle;spacingTop=-1;spacingLeft=3;spacingRight=3;rotatable=0;labelPosition=right;points=[];portConstraint=eastwest;strokeColor=inherit;" parent="SaCOgG8UOvRfNBqPI8a1-11" vertex="1">
          <mxGeometry y="52" width="160" height="8" as="geometry" />
        </mxCell>
        <mxCell id="SaCOgG8UOvRfNBqPI8a1-14" value="&lt;div style=&quot;line-height: 150%;&quot;&gt;+ updateTime()&lt;div&gt;+ affectVisibility()&lt;/div&gt;&lt;/div&gt;" style="text;strokeColor=none;fillColor=none;align=left;verticalAlign=top;spacingLeft=4;spacingRight=4;overflow=hidden;rotatable=0;points=[[0,0.5],[1,0.5]];portConstraint=eastwest;whiteSpace=wrap;html=1;" parent="SaCOgG8UOvRfNBqPI8a1-11" vertex="1">
          <mxGeometry y="60" width="160" height="50" as="geometry" />
        </mxCell>
        <mxCell id="SaCOgG8UOvRfNBqPI8a1-15" value="Level" style="swimlane;fontStyle=1;align=center;verticalAlign=top;childLayout=stackLayout;horizontal=1;startSize=26;horizontalStack=0;resizeParent=1;resizeParentMax=0;resizeLast=0;collapsible=1;marginBottom=0;whiteSpace=wrap;html=1;fillColor=light-dark(#A9C4EB,var(--ge-dark-color, #121212));" parent="WIyWlLk6GJQsqaUBKTNV-1" vertex="1">
          <mxGeometry x="710" y="410" width="170" height="86" as="geometry" />
        </mxCell>
        <mxCell id="SaCOgG8UOvRfNBqPI8a1-16" value="- difficulty: string" style="text;strokeColor=none;fillColor=none;align=left;verticalAlign=top;spacingLeft=4;spacingRight=4;overflow=hidden;rotatable=0;points=[[0,0.5],[1,0.5]];portConstraint=eastwest;whiteSpace=wrap;html=1;" parent="SaCOgG8UOvRfNBqPI8a1-15" vertex="1">
          <mxGeometry y="26" width="170" height="26" as="geometry" />
        </mxCell>
        <mxCell id="SaCOgG8UOvRfNBqPI8a1-17" value="" style="line;strokeWidth=1;fillColor=none;align=left;verticalAlign=middle;spacingTop=-1;spacingLeft=3;spacingRight=3;rotatable=0;labelPosition=right;points=[];portConstraint=eastwest;strokeColor=inherit;" parent="SaCOgG8UOvRfNBqPI8a1-15" vertex="1">
          <mxGeometry y="52" width="170" height="8" as="geometry" />
        </mxCell>
        <mxCell id="SaCOgG8UOvRfNBqPI8a1-18" value="+ setDifficulty(difficulty: string)" style="text;strokeColor=none;fillColor=none;align=left;verticalAlign=top;spacingLeft=4;spacingRight=4;overflow=hidden;rotatable=0;points=[[0,0.5],[1,0.5]];portConstraint=eastwest;whiteSpace=wrap;html=1;" parent="SaCOgG8UOvRfNBqPI8a1-15" vertex="1">
          <mxGeometry y="60" width="170" height="26" as="geometry" />
        </mxCell>
        <mxCell id="SaCOgG8UOvRfNBqPI8a1-19" value="MiniMap" style="swimlane;fontStyle=1;align=center;verticalAlign=top;childLayout=stackLayout;horizontal=1;startSize=26;horizontalStack=0;resizeParent=1;resizeParentMax=0;resizeLast=0;collapsible=1;marginBottom=0;whiteSpace=wrap;html=1;fillColor=light-dark(#A9C4EB,var(--ge-dark-color, #121212));" parent="WIyWlLk6GJQsqaUBKTNV-1" vertex="1">
          <mxGeometry x="800" y="249" width="120" height="100" as="geometry" />
        </mxCell>
        <mxCell id="SaCOgG8UOvRfNBqPI8a1-21" value="" style="line;strokeWidth=1;fillColor=none;align=left;verticalAlign=middle;spacingTop=-1;spacingLeft=3;spacingRight=3;rotatable=0;labelPosition=right;points=[];portConstraint=eastwest;strokeColor=inherit;" parent="SaCOgG8UOvRfNBqPI8a1-19" vertex="1">
          <mxGeometry y="26" width="120" height="8" as="geometry" />
        </mxCell>
        <mxCell id="SaCOgG8UOvRfNBqPI8a1-22" value="&lt;div style=&quot;line-height: 150%;&quot;&gt;+ displayOverview()&lt;div&gt;+ zoomIn()&lt;/div&gt;&lt;div&gt;+ zoomOut()&lt;/div&gt;&lt;/div&gt;" style="text;strokeColor=none;fillColor=none;align=left;verticalAlign=top;spacingLeft=4;spacingRight=4;overflow=hidden;rotatable=0;points=[[0,0.5],[1,0.5]];portConstraint=eastwest;whiteSpace=wrap;html=1;" parent="SaCOgG8UOvRfNBqPI8a1-19" vertex="1">
          <mxGeometry y="34" width="120" height="66" as="geometry" />
        </mxCell>
        <mxCell id="SaCOgG8UOvRfNBqPI8a1-23" style="edgeStyle=orthogonalEdgeStyle;rounded=1;orthogonalLoop=1;jettySize=auto;html=1;exitX=-0.003;exitY=0.394;exitDx=0;exitDy=0;fontSize=12;startSize=8;endSize=8;endArrow=none;endFill=1;startFill=0;exitPerimeter=0;" parent="WIyWlLk6GJQsqaUBKTNV-1" source="SaCOgG8UOvRfNBqPI8a1-14" edge="1">
          <mxGeometry relative="1" as="geometry">
            <mxPoint x="550" y="310" as="targetPoint" />
            <Array as="points">
              <mxPoint x="620" y="160" />
              <mxPoint x="620" y="310" />
            </Array>
          </mxGeometry>
        </mxCell>
        <mxCell id="SaCOgG8UOvRfNBqPI8a1-24" style="edgeStyle=orthogonalEdgeStyle;rounded=1;orthogonalLoop=1;jettySize=auto;html=1;exitX=0;exitY=0.5;exitDx=0;exitDy=0;fontSize=12;startSize=8;endSize=8;endArrow=none;endFill=1;curved=0;startFill=0;" parent="WIyWlLk6GJQsqaUBKTNV-1" source="SaCOgG8UOvRfNBqPI8a1-16" edge="1">
          <mxGeometry relative="1" as="geometry">
            <mxPoint x="550" y="310" as="targetPoint" />
            <Array as="points">
              <mxPoint x="710" y="450" />
              <mxPoint x="620" y="450" />
              <mxPoint x="620" y="310" />
            </Array>
          </mxGeometry>
        </mxCell>
        <mxCell id="SaCOgG8UOvRfNBqPI8a1-25" style="edgeStyle=orthogonalEdgeStyle;rounded=1;orthogonalLoop=1;jettySize=auto;html=1;fontSize=12;startSize=8;endSize=8;endArrow=none;endFill=1;curved=0;startFill=0;exitX=0.003;exitY=0.41;exitDx=0;exitDy=0;exitPerimeter=0;" parent="WIyWlLk6GJQsqaUBKTNV-1" source="SaCOgG8UOvRfNBqPI8a1-22" edge="1">
          <mxGeometry relative="1" as="geometry">
            <mxPoint x="550.0864653716217" y="310" as="targetPoint" />
            <mxPoint x="660" y="310" as="sourcePoint" />
          </mxGeometry>
        </mxCell>
        <mxCell id="SaCOgG8UOvRfNBqPI8a1-40" style="edgeStyle=orthogonalEdgeStyle;rounded=1;orthogonalLoop=1;jettySize=auto;html=1;fontSize=12;startSize=8;endSize=8;exitX=0.5;exitY=0;exitDx=0;exitDy=0;endArrow=none;startFill=0;" parent="WIyWlLk6GJQsqaUBKTNV-1" source="SaCOgG8UOvRfNBqPI8a1-26" edge="1">
          <mxGeometry relative="1" as="geometry">
            <mxPoint x="420" y="480" as="targetPoint" />
            <mxPoint x="220" y="580" as="sourcePoint" />
            <Array as="points">
              <mxPoint x="185" y="520" />
              <mxPoint x="420" y="520" />
            </Array>
          </mxGeometry>
        </mxCell>
        <mxCell id="SaCOgG8UOvRfNBqPI8a1-26" value="Player" style="swimlane;fontStyle=1;align=center;verticalAlign=top;childLayout=stackLayout;horizontal=1;startSize=26;horizontalStack=0;resizeParent=1;resizeParentMax=0;resizeLast=0;collapsible=1;marginBottom=0;whiteSpace=wrap;html=1;fillColor=light-dark(#99CCFF,var(--ge-dark-color, #121212));" parent="WIyWlLk6GJQsqaUBKTNV-1" vertex="1">
          <mxGeometry x="50" y="600" width="270" height="200" as="geometry" />
        </mxCell>
        <mxCell id="SaCOgG8UOvRfNBqPI8a1-27" value="&lt;div style=&quot;line-height: 150%;&quot;&gt;- name: str&lt;div&gt;- capital: Capital&lt;/div&gt;&lt;/div&gt;" style="text;strokeColor=none;fillColor=none;align=left;verticalAlign=top;spacingLeft=4;spacingRight=4;overflow=hidden;rotatable=0;points=[[0,0.5],[1,0.5]];portConstraint=eastwest;whiteSpace=wrap;html=1;" parent="SaCOgG8UOvRfNBqPI8a1-26" vertex="1">
          <mxGeometry y="26" width="270" height="44" as="geometry" />
        </mxCell>
        <mxCell id="SaCOgG8UOvRfNBqPI8a1-28" value="" style="line;strokeWidth=1;fillColor=none;align=left;verticalAlign=middle;spacingTop=-1;spacingLeft=3;spacingRight=3;rotatable=0;labelPosition=right;points=[];portConstraint=eastwest;strokeColor=inherit;" parent="SaCOgG8UOvRfNBqPI8a1-26" vertex="1">
          <mxGeometry y="70" width="270" height="8" as="geometry" />
        </mxCell>
        <mxCell id="k2wTtzufq_Mtc1FWqabc-18" style="edgeStyle=orthogonalEdgeStyle;rounded=1;orthogonalLoop=1;jettySize=auto;html=1;exitX=0;exitY=0.5;exitDx=0;exitDy=0;curved=0;endArrow=none;startFill=0;" parent="SaCOgG8UOvRfNBqPI8a1-26" source="SaCOgG8UOvRfNBqPI8a1-29" edge="1">
          <mxGeometry relative="1" as="geometry">
            <mxPoint x="-90" y="580.8421566611842" as="targetPoint" />
          </mxGeometry>
        </mxCell>
        <mxCell id="k2wTtzufq_Mtc1FWqabc-19" value="Controls" style="edgeLabel;html=1;align=center;verticalAlign=middle;resizable=0;points=[];" parent="k2wTtzufq_Mtc1FWqabc-18" vertex="1" connectable="0">
          <mxGeometry x="0.0615" relative="1" as="geometry">
            <mxPoint as="offset" />
          </mxGeometry>
        </mxCell>
        <mxCell id="SaCOgG8UOvRfNBqPI8a1-29" value="&lt;div style=&quot;line-height: 150%;&quot;&gt;+ manageCapital()&lt;div&gt;+ purchaseItem(item: Item)&lt;/div&gt;&lt;div&gt;+ hireRangers(ranger: Ranger)&lt;/div&gt;&lt;div&gt;+ sellAnimal(animal: Animal): void&lt;/div&gt;&lt;div style=&quot;text-align: center;&quot;&gt;&lt;b&gt;&amp;lt;&amp;lt; Event&amp;gt;&amp;gt;&lt;/b&gt;&lt;/div&gt;&lt;div style=&quot;text-align: center;&quot;&gt;+ OnRangerClick(ranger: ControllableRanger)&lt;/div&gt;&lt;/div&gt;" style="text;strokeColor=none;fillColor=none;align=left;verticalAlign=top;spacingLeft=4;spacingRight=4;overflow=hidden;rotatable=0;points=[[0,0.5],[1,0.5]];portConstraint=eastwest;whiteSpace=wrap;html=1;" parent="SaCOgG8UOvRfNBqPI8a1-26" vertex="1">
          <mxGeometry y="78" width="270" height="122" as="geometry" />
        </mxCell>
        <mxCell id="k2wTtzufq_Mtc1FWqabc-20" value="" style="endArrow=open;endFill=1;endSize=12;html=1;rounded=0;fontSize=12;curved=1;entryX=0.47;entryY=0.002;entryDx=0;entryDy=0;entryPerimeter=0;" parent="SaCOgG8UOvRfNBqPI8a1-26" target="5Qt55anMSwDAI13z4265-12" edge="1">
          <mxGeometry width="160" relative="1" as="geometry">
            <mxPoint x="-90" y="460" as="sourcePoint" />
            <mxPoint x="-90" y="580" as="targetPoint" />
          </mxGeometry>
        </mxCell>
        <mxCell id="SaCOgG8UOvRfNBqPI8a1-41" style="edgeStyle=orthogonalEdgeStyle;rounded=1;orthogonalLoop=1;jettySize=auto;html=1;exitX=0.5;exitY=0;exitDx=0;exitDy=0;fontSize=12;startSize=8;endSize=8;endArrow=none;startFill=0;" parent="WIyWlLk6GJQsqaUBKTNV-1" source="SaCOgG8UOvRfNBqPI8a1-30" edge="1">
          <mxGeometry relative="1" as="geometry">
            <mxPoint x="420" y="470" as="targetPoint" />
            <Array as="points">
              <mxPoint x="655" y="520" />
              <mxPoint x="420" y="520" />
            </Array>
          </mxGeometry>
        </mxCell>
        <mxCell id="SaCOgG8UOvRfNBqPI8a1-30" value="SafariPark" style="swimlane;fontStyle=1;align=center;verticalAlign=top;childLayout=stackLayout;horizontal=1;startSize=26;horizontalStack=0;resizeParent=1;resizeParentMax=0;resizeLast=0;collapsible=1;marginBottom=0;whiteSpace=wrap;html=1;fillColor=light-dark(#99CCFF,var(--ge-dark-color, #121212));" parent="WIyWlLk6GJQsqaUBKTNV-1" vertex="1">
          <mxGeometry x="500" y="600" width="310" height="480" as="geometry" />
        </mxCell>
        <mxCell id="SaCOgG8UOvRfNBqPI8a1-31" value="&lt;div style=&quot;line-height: 150%;&quot;&gt;- Road[] roads&lt;div&gt;- Jeep[] jeeps&lt;/div&gt;&lt;div&gt;- Plant[] plants&lt;/div&gt;&lt;div&gt;- Animal[] animals&lt;/div&gt;&lt;div&gt;- Tourist[] tourists&lt;/div&gt;&lt;div&gt;- Ranger[] rangers&lt;/div&gt;&lt;div&gt;&lt;span style=&quot;background-color: transparent; color: light-dark(rgb(0, 0, 0), rgb(255, 255, 255));&quot;&gt;- Poacher[] poachers&lt;/span&gt;&lt;/div&gt;&lt;div&gt;- WaterResource[] waterResources&lt;/div&gt;&lt;/div&gt;" style="text;strokeColor=none;fillColor=none;align=left;verticalAlign=top;spacingLeft=4;spacingRight=4;overflow=hidden;rotatable=0;points=[[0,0.5],[1,0.5]];portConstraint=eastwest;whiteSpace=wrap;html=1;" parent="SaCOgG8UOvRfNBqPI8a1-30" vertex="1">
          <mxGeometry y="26" width="310" height="154" as="geometry" />
        </mxCell>
        <mxCell id="SaCOgG8UOvRfNBqPI8a1-32" value="" style="line;strokeWidth=1;fillColor=none;align=left;verticalAlign=middle;spacingTop=-1;spacingLeft=3;spacingRight=3;rotatable=0;labelPosition=right;points=[];portConstraint=eastwest;strokeColor=inherit;" parent="SaCOgG8UOvRfNBqPI8a1-30" vertex="1">
          <mxGeometry y="180" width="310" height="8" as="geometry" />
        </mxCell>
        <mxCell id="SaCOgG8UOvRfNBqPI8a1-33" value="&lt;div style=&quot;line-height: 150%;&quot;&gt;&lt;span style=&quot;background-color: transparent; color: light-dark(rgb(0, 0, 0), rgb(255, 255, 255));&quot;&gt;+ addJeep(jeep: Jeep)&lt;/span&gt;&lt;/div&gt;&lt;div style=&quot;line-height: 150%;&quot;&gt;+ addPlant(plant: Plant)&lt;/div&gt;&lt;div style=&quot;line-height: 18px;&quot;&gt;+ addRoad(road: Road)&lt;/div&gt;&lt;div style=&quot;line-height: 150%;&quot;&gt;+ addTourist(tourist: Tourist)&lt;/div&gt;&lt;div style=&quot;line-height: 150%;&quot;&gt;&lt;span style=&quot;background-color: transparent; color: light-dark(rgb(0, 0, 0), rgb(255, 255, 255));&quot;&gt;+ addAnimal(animal: Animal)&lt;/span&gt;&lt;/div&gt;&lt;div style=&quot;line-height: 150%;&quot;&gt;+ addRanger(ranger: Ranger)&lt;/div&gt;&lt;div style=&quot;line-height: 150%;&quot;&gt;+ addPoacher(poacher: Poacher)&lt;/div&gt;&lt;div style=&quot;line-height: 150%;&quot;&gt;+&amp;nbsp;&lt;span style=&quot;background-color: transparent; color: light-dark(rgb(0, 0, 0), rgb(255, 255, 255));&quot;&gt;detectPoachers(): List[Poacher]&lt;/span&gt;&lt;/div&gt;&lt;div style=&quot;line-height: 150%;&quot;&gt;+&amp;nbsp;&lt;span style=&quot;background-color: transparent; color: light-dark(rgb(0, 0, 0), rgb(255, 255, 255));&quot;&gt;checkWinLoseCondition(): boolean&lt;/span&gt;&lt;/div&gt;&lt;div style=&quot;line-height: 150%;&quot;&gt;+&amp;nbsp;&lt;span style=&quot;background-color: transparent; color: light-dark(rgb(0, 0, 0), rgb(255, 255, 255));&quot;&gt;updateGameState(timeStep: int): void&lt;/span&gt;&lt;/div&gt;&lt;div style=&quot;line-height: 150%;&quot;&gt;+ addWaterResource(wr: WaterResource)&lt;/div&gt;&lt;div style=&quot;line-height: 150%;&quot;&gt;+ isLocationAccessible(location: Point): bool&lt;/div&gt;&lt;div style=&quot;line-height: 150%;&quot;&gt;&lt;span style=&quot;background-color: transparent; color: light-dark(rgb(0, 0, 0), rgb(255, 255, 255));&quot;&gt;+ getWaterResourceAt(location: Point): WaterResource&lt;/span&gt;&lt;/div&gt;&lt;div style=&quot;text-align: center;&quot;&gt;&lt;b&gt;&amp;lt;&amp;lt; Event&amp;gt;&amp;gt;&lt;/b&gt;&lt;/div&gt;&lt;div style=&quot;line-height: 150%;&quot;&gt;&lt;span style=&quot;background-color: transparent; color: light-dark(rgb(0, 0, 0), rgb(255, 255, 255));&quot;&gt;+ handlePlayerInteraction(location: Point)&lt;/span&gt;&lt;/div&gt;&lt;div style=&quot;line-height: 150%;&quot;&gt;+ handleEvent(event: Event)&lt;/div&gt;" style="text;strokeColor=none;fillColor=none;align=left;verticalAlign=top;spacingLeft=4;spacingRight=4;overflow=hidden;rotatable=0;points=[[0,0.5],[1,0.5]];portConstraint=eastwest;whiteSpace=wrap;html=1;" parent="SaCOgG8UOvRfNBqPI8a1-30" vertex="1">
          <mxGeometry y="188" width="310" height="292" as="geometry" />
        </mxCell>
        <mxCell id="SaCOgG8UOvRfNBqPI8a1-38" value="" style="endArrow=diamondThin;endFill=0;endSize=24;html=1;rounded=0;fontSize=12;curved=1;entryX=0.999;entryY=0.892;entryDx=0;entryDy=0;entryPerimeter=0;" parent="WIyWlLk6GJQsqaUBKTNV-1" target="SaCOgG8UOvRfNBqPI8a1-2" edge="1">
          <mxGeometry width="160" relative="1" as="geometry">
            <mxPoint x="610" y="310" as="sourcePoint" />
            <mxPoint x="560" y="400" as="targetPoint" />
          </mxGeometry>
        </mxCell>
        <mxCell id="SaCOgG8UOvRfNBqPI8a1-39" value="" style="endArrow=diamondThin;endFill=1;endSize=24;html=1;rounded=0;fontSize=12;curved=1;entryX=0.499;entryY=1.004;entryDx=0;entryDy=0;entryPerimeter=0;" parent="WIyWlLk6GJQsqaUBKTNV-1" target="SaCOgG8UOvRfNBqPI8a1-4" edge="1">
          <mxGeometry width="160" relative="1" as="geometry">
            <mxPoint x="420" y="510" as="sourcePoint" />
            <mxPoint x="550" y="460" as="targetPoint" />
            <Array as="points">
              <mxPoint x="420" y="490" />
            </Array>
          </mxGeometry>
        </mxCell>
        <mxCell id="k2wTtzufq_Mtc1FWqabc-26" style="edgeStyle=orthogonalEdgeStyle;rounded=0;orthogonalLoop=1;jettySize=auto;html=1;endArrow=none;startFill=0;" parent="WIyWlLk6GJQsqaUBKTNV-1" source="SaCOgG8UOvRfNBqPI8a1-42" edge="1">
          <mxGeometry relative="1" as="geometry">
            <mxPoint x="980" y="1140" as="targetPoint" />
          </mxGeometry>
        </mxCell>
        <mxCell id="SaCOgG8UOvRfNBqPI8a1-42" value="Plant" style="swimlane;fontStyle=1;align=center;verticalAlign=top;childLayout=stackLayout;horizontal=1;startSize=26;horizontalStack=0;resizeParent=1;resizeParentMax=0;resizeLast=0;collapsible=1;marginBottom=0;whiteSpace=wrap;html=1;fillColor=light-dark(#A9C4EB,var(--ge-dark-color, #121212));" parent="WIyWlLk6GJQsqaUBKTNV-1" vertex="1">
          <mxGeometry x="920" y="960" width="120" height="138" as="geometry" />
        </mxCell>
        <mxCell id="SaCOgG8UOvRfNBqPI8a1-43" value="- type: string&lt;div&gt;&lt;span style=&quot;background-color: transparent; color: light-dark(rgb(0, 0, 0), rgb(255, 255, 255));&quot;&gt;- growthStage: int&lt;/span&gt;&lt;/div&gt;&lt;div&gt;&lt;span style=&quot;background-color: transparent; color: light-dark(rgb(0, 0, 0), rgb(255, 255, 255));&quot;&gt;- location: point&lt;/span&gt;&lt;/div&gt;" style="text;strokeColor=none;fillColor=none;align=left;verticalAlign=top;spacingLeft=4;spacingRight=4;overflow=hidden;rotatable=0;points=[[0,0.5],[1,0.5]];portConstraint=eastwest;whiteSpace=wrap;html=1;" parent="SaCOgG8UOvRfNBqPI8a1-42" vertex="1">
          <mxGeometry y="26" width="120" height="54" as="geometry" />
        </mxCell>
        <mxCell id="SaCOgG8UOvRfNBqPI8a1-44" value="" style="line;strokeWidth=1;fillColor=none;align=left;verticalAlign=middle;spacingTop=-1;spacingLeft=3;spacingRight=3;rotatable=0;labelPosition=right;points=[];portConstraint=eastwest;strokeColor=inherit;" parent="SaCOgG8UOvRfNBqPI8a1-42" vertex="1">
          <mxGeometry y="80" width="120" height="8" as="geometry" />
        </mxCell>
        <mxCell id="SaCOgG8UOvRfNBqPI8a1-45" value="&lt;div style=&quot;line-height: 150%;&quot;&gt;+ grow()&lt;div&gt;+ beConsumed()&lt;/div&gt;&lt;/div&gt;" style="text;strokeColor=none;fillColor=none;align=left;verticalAlign=top;spacingLeft=4;spacingRight=4;overflow=hidden;rotatable=0;points=[[0,0.5],[1,0.5]];portConstraint=eastwest;whiteSpace=wrap;html=1;" parent="SaCOgG8UOvRfNBqPI8a1-42" vertex="1">
          <mxGeometry y="88" width="120" height="50" as="geometry" />
        </mxCell>
        <mxCell id="SaCOgG8UOvRfNBqPI8a1-46" value="Animal" style="swimlane;fontStyle=1;align=center;verticalAlign=top;childLayout=stackLayout;horizontal=1;startSize=26;horizontalStack=0;resizeParent=1;resizeParentMax=0;resizeLast=0;collapsible=1;marginBottom=0;whiteSpace=wrap;html=1;fillColor=light-dark(#A9C4EB,var(--ge-dark-color, #121212));" parent="WIyWlLk6GJQsqaUBKTNV-1" vertex="1">
          <mxGeometry x="316" y="1680" width="250" height="300" as="geometry" />
        </mxCell>
        <mxCell id="k2wTtzufq_Mtc1FWqabc-25" style="edgeStyle=orthogonalEdgeStyle;rounded=1;orthogonalLoop=1;jettySize=auto;html=1;exitX=1;exitY=0.5;exitDx=0;exitDy=0;endArrow=none;startFill=0;curved=0;" parent="SaCOgG8UOvRfNBqPI8a1-46" source="SaCOgG8UOvRfNBqPI8a1-47" edge="1">
          <mxGeometry relative="1" as="geometry">
            <mxPoint x="334" y="-550" as="targetPoint" />
          </mxGeometry>
        </mxCell>
        <mxCell id="SaCOgG8UOvRfNBqPI8a1-47" value="&lt;div style=&quot;line-height: 150%;&quot;&gt;# health: int&lt;/div&gt;&lt;div style=&quot;line-height: 150%;&quot;&gt;&lt;span style=&quot;background-color: transparent; color: light-dark(rgb(0, 0, 0), rgb(255, 255, 255));&quot;&gt;#&amp;nbsp;&lt;/span&gt;&lt;span style=&quot;background-color: transparent; color: light-dark(rgb(0, 0, 0), rgb(255, 255, 255));&quot;&gt;age: int&lt;/span&gt;&lt;/div&gt;&lt;div style=&quot;line-height: 150%;&quot;&gt;&lt;span style=&quot;background-color: transparent; color: light-dark(rgb(0, 0, 0), rgb(255, 255, 255));&quot;&gt;# price: float&lt;/span&gt;&lt;/div&gt;&lt;div style=&quot;line-height: 150%;&quot;&gt;&lt;span style=&quot;background-color: transparent; color: light-dark(rgb(0, 0, 0), rgb(255, 255, 255));&quot;&gt;# position: Tuple[int, int&lt;/span&gt;&lt;/div&gt;&lt;div style=&quot;line-height: 150%;&quot;&gt;&lt;span style=&quot;background-color: transparent; color: light-dark(rgb(0, 0, 0), rgb(255, 255, 255));&quot;&gt;#&amp;nbsp;&lt;/span&gt;&lt;span style=&quot;background-color: transparent; color: light-dark(rgb(0, 0, 0), rgb(255, 255, 255));&quot;&gt;isAlive: boolean&lt;/span&gt;&lt;/div&gt;&lt;div style=&quot;line-height: 150%;&quot;&gt;&lt;span style=&quot;background-color: transparent; color: light-dark(rgb(0, 0, 0), rgb(255, 255, 255));&quot;&gt;# hungerLevel: int&lt;/span&gt;&lt;/div&gt;&lt;div style=&quot;line-height: 150%;&quot;&gt;&lt;span style=&quot;background-color: transparent; color: light-dark(rgb(0, 0, 0), rgb(255, 255, 255));&quot;&gt;# thirstLevel: int&lt;/span&gt;&lt;/div&gt;&lt;div style=&quot;line-height: 150%;&quot;&gt;&lt;span style=&quot;background-color: transparent; color: light-dark(rgb(0, 0, 0), rgb(255, 255, 255));&quot;&gt;# WaterResources[]&amp;nbsp;&lt;/span&gt;&lt;span style=&quot;background-color: transparent; color: light-dark(rgb(0, 0, 0), rgb(255, 255, 255));&quot;&gt;FoundWaterResources&lt;/span&gt;&lt;/div&gt;" style="text;strokeColor=none;fillColor=none;align=left;verticalAlign=top;spacingLeft=4;spacingRight=4;overflow=hidden;rotatable=0;points=[[0,0.5],[1,0.5]];portConstraint=eastwest;whiteSpace=wrap;html=1;" parent="SaCOgG8UOvRfNBqPI8a1-46" vertex="1">
          <mxGeometry y="26" width="250" height="154" as="geometry" />
        </mxCell>
        <mxCell id="SaCOgG8UOvRfNBqPI8a1-48" value="" style="line;strokeWidth=1;fillColor=none;align=left;verticalAlign=middle;spacingTop=-1;spacingLeft=3;spacingRight=3;rotatable=0;labelPosition=right;points=[];portConstraint=eastwest;strokeColor=inherit;" parent="SaCOgG8UOvRfNBqPI8a1-46" vertex="1">
          <mxGeometry y="180" width="250" height="8" as="geometry" />
        </mxCell>
        <mxCell id="SaCOgG8UOvRfNBqPI8a1-49" value="&lt;div style=&quot;line-height: 150%;&quot;&gt;+ move()&lt;/div&gt;&lt;div style=&quot;line-height: 150%;&quot;&gt;+ eat()&lt;/div&gt;&lt;div style=&quot;line-height: 150%;&quot;&gt;+ drink()&lt;/div&gt;&lt;div style=&quot;line-height: 150%;&quot;&gt;+ ageUp()&lt;/div&gt;&lt;div style=&quot;line-height: 150%;&quot;&gt;&lt;span style=&quot;background-color: transparent; color: light-dark(rgb(0, 0, 0), rgb(255, 255, 255));&quot;&gt;+ reproduce(partner: Animal) : Animal&lt;/span&gt;&lt;/div&gt;&lt;div style=&quot;line-height: 150%;&quot;&gt;&lt;span style=&quot;background-color: transparent; color: light-dark(rgb(0, 0, 0), rgb(255, 255, 255));&quot;&gt;+ die()&lt;/span&gt;&lt;/div&gt;" style="text;strokeColor=none;fillColor=none;align=left;verticalAlign=top;spacingLeft=4;spacingRight=4;overflow=hidden;rotatable=0;points=[[0,0.5],[1,0.5]];portConstraint=eastwest;whiteSpace=wrap;html=1;" parent="SaCOgG8UOvRfNBqPI8a1-46" vertex="1">
          <mxGeometry y="188" width="250" height="112" as="geometry" />
        </mxCell>
        <mxCell id="5Qt55anMSwDAI13z4265-91" style="edgeStyle=none;curved=1;rounded=0;orthogonalLoop=1;jettySize=auto;html=1;exitX=0.539;exitY=1.005;exitDx=0;exitDy=0;fontSize=12;startSize=8;endSize=8;endArrow=none;startFill=0;exitPerimeter=0;" parent="WIyWlLk6GJQsqaUBKTNV-1" source="SaCOgG8UOvRfNBqPI8a1-53" edge="1">
          <mxGeometry relative="1" as="geometry">
            <mxPoint x="371" y="1140" as="targetPoint" />
          </mxGeometry>
        </mxCell>
        <mxCell id="SaCOgG8UOvRfNBqPI8a1-50" value="WaterResource" style="swimlane;fontStyle=1;align=center;verticalAlign=top;childLayout=stackLayout;horizontal=1;startSize=26;horizontalStack=0;resizeParent=1;resizeParentMax=0;resizeLast=0;collapsible=1;marginBottom=0;whiteSpace=wrap;html=1;fillColor=light-dark(#A9C4EB,var(--ge-dark-color, #121212));" parent="WIyWlLk6GJQsqaUBKTNV-1" vertex="1">
          <mxGeometry x="280" y="920" width="170" height="160" as="geometry" />
        </mxCell>
        <mxCell id="SaCOgG8UOvRfNBqPI8a1-51" value="&lt;div style=&quot;line-height: 150%;&quot;&gt;&lt;span style=&quot;background-color: transparent; color: light-dark(rgb(0, 0, 0), rgb(255, 255, 255));&quot;&gt;- capacity: int&lt;/span&gt;&lt;/div&gt;&lt;div style=&quot;line-height: 150%;&quot;&gt;- location: Point&lt;/div&gt;&lt;div style=&quot;line-height: 150%;&quot;&gt;-&amp;nbsp;&lt;span style=&quot;background-color: transparent; color: light-dark(rgb(0, 0, 0), rgb(255, 255, 255));&quot;&gt;constructionCost: float&lt;/span&gt;&lt;div&gt;&lt;br&gt;&lt;/div&gt;&lt;/div&gt;" style="text;strokeColor=none;fillColor=none;align=left;verticalAlign=top;spacingLeft=4;spacingRight=4;overflow=hidden;rotatable=0;points=[[0,0.5],[1,0.5]];portConstraint=eastwest;whiteSpace=wrap;html=1;" parent="SaCOgG8UOvRfNBqPI8a1-50" vertex="1">
          <mxGeometry y="26" width="170" height="64" as="geometry" />
        </mxCell>
        <mxCell id="SaCOgG8UOvRfNBqPI8a1-52" value="" style="line;strokeWidth=1;fillColor=none;align=left;verticalAlign=middle;spacingTop=-1;spacingLeft=3;spacingRight=3;rotatable=0;labelPosition=right;points=[];portConstraint=eastwest;strokeColor=inherit;" parent="SaCOgG8UOvRfNBqPI8a1-50" vertex="1">
          <mxGeometry y="90" width="170" height="8" as="geometry" />
        </mxCell>
        <mxCell id="SaCOgG8UOvRfNBqPI8a1-53" value="&lt;div style=&quot;line-height: 150%;&quot;&gt;+ provideWater()&lt;/div&gt;&lt;div style=&quot;line-height: 150%;&quot;&gt;&lt;span style=&quot;background-color: transparent; color: light-dark(rgb(0, 0, 0), rgb(255, 255, 255));&quot;&gt;+ replenish()&lt;/span&gt;&lt;/div&gt;&lt;div style=&quot;line-height: 150%;&quot;&gt;&lt;span style=&quot;background-color: transparent; color: light-dark(rgb(0, 0, 0), rgb(255, 255, 255));&quot;&gt;+ reduceWater(amount: float)&lt;/span&gt;&lt;/div&gt;" style="text;strokeColor=none;fillColor=none;align=left;verticalAlign=top;spacingLeft=4;spacingRight=4;overflow=hidden;rotatable=0;points=[[0,0.5],[1,0.5]];portConstraint=eastwest;whiteSpace=wrap;html=1;" parent="SaCOgG8UOvRfNBqPI8a1-50" vertex="1">
          <mxGeometry y="98" width="170" height="62" as="geometry" />
        </mxCell>
        <mxCell id="k2wTtzufq_Mtc1FWqabc-24" style="edgeStyle=orthogonalEdgeStyle;rounded=1;orthogonalLoop=1;jettySize=auto;html=1;exitX=0.5;exitY=0;exitDx=0;exitDy=0;curved=0;endArrow=none;startFill=0;" parent="WIyWlLk6GJQsqaUBKTNV-1" source="SaCOgG8UOvRfNBqPI8a1-58" edge="1">
          <mxGeometry relative="1" as="geometry">
            <mxPoint x="650" y="1110" as="targetPoint" />
          </mxGeometry>
        </mxCell>
        <mxCell id="SaCOgG8UOvRfNBqPI8a1-58" value="Road" style="swimlane;fontStyle=1;align=center;verticalAlign=top;childLayout=stackLayout;horizontal=1;startSize=26;horizontalStack=0;resizeParent=1;resizeParentMax=0;resizeLast=0;collapsible=1;marginBottom=0;whiteSpace=wrap;html=1;fillColor=light-dark(#A9C4EB,var(--ge-dark-color, #121212));" parent="WIyWlLk6GJQsqaUBKTNV-1" vertex="1">
          <mxGeometry x="676" y="1312" width="170" height="130" as="geometry" />
        </mxCell>
        <mxCell id="SaCOgG8UOvRfNBqPI8a1-59" value="&lt;div style=&quot;line-height: 150%;&quot;&gt;- start: Point&lt;div&gt;- end: Point&lt;/div&gt;&lt;div&gt;- constructionCost: float&lt;/div&gt;&lt;/div&gt;" style="text;strokeColor=none;fillColor=none;align=left;verticalAlign=top;spacingLeft=4;spacingRight=4;overflow=hidden;rotatable=0;points=[[0,0.5],[1,0.5]];portConstraint=eastwest;whiteSpace=wrap;html=1;" parent="SaCOgG8UOvRfNBqPI8a1-58" vertex="1">
          <mxGeometry y="26" width="170" height="64" as="geometry" />
        </mxCell>
        <mxCell id="SaCOgG8UOvRfNBqPI8a1-60" value="" style="line;strokeWidth=1;fillColor=none;align=left;verticalAlign=middle;spacingTop=-1;spacingLeft=3;spacingRight=3;rotatable=0;labelPosition=right;points=[];portConstraint=eastwest;strokeColor=inherit;" parent="SaCOgG8UOvRfNBqPI8a1-58" vertex="1">
          <mxGeometry y="90" width="170" height="8" as="geometry" />
        </mxCell>
        <mxCell id="SaCOgG8UOvRfNBqPI8a1-61" value="&lt;div style=&quot;line-height: 150%;&quot;&gt;+&amp;nbsp;&lt;span style=&quot;background-color: transparent; color: light-dark(rgb(0, 0, 0), rgb(255, 255, 255));&quot;&gt;buildAndC&lt;/span&gt;&lt;span style=&quot;background-color: transparent; color: light-dark(rgb(0, 0, 0), rgb(255, 255, 255));&quot;&gt;onnectRoad()&lt;/span&gt;&lt;/div&gt;" style="text;strokeColor=none;fillColor=none;align=left;verticalAlign=top;spacingLeft=4;spacingRight=4;overflow=hidden;rotatable=0;points=[[0,0.5],[1,0.5]];portConstraint=eastwest;whiteSpace=wrap;html=1;" parent="SaCOgG8UOvRfNBqPI8a1-58" vertex="1">
          <mxGeometry y="98" width="170" height="32" as="geometry" />
        </mxCell>
        <mxCell id="5Qt55anMSwDAI13z4265-48" style="edgeStyle=orthogonalEdgeStyle;rounded=1;orthogonalLoop=1;jettySize=auto;html=1;exitX=0.5;exitY=0;exitDx=0;exitDy=0;fontSize=12;startSize=8;endSize=8;endArrow=none;startFill=0;" parent="WIyWlLk6GJQsqaUBKTNV-1" source="SaCOgG8UOvRfNBqPI8a1-63" edge="1">
          <mxGeometry relative="1" as="geometry">
            <mxPoint x="650" y="1110" as="targetPoint" />
            <Array as="points">
              <mxPoint x="275" y="1140" />
              <mxPoint x="650" y="1140" />
            </Array>
          </mxGeometry>
        </mxCell>
        <mxCell id="SaCOgG8UOvRfNBqPI8a1-63" value="Character" style="swimlane;fontStyle=1;align=center;verticalAlign=top;childLayout=stackLayout;horizontal=1;startSize=26;horizontalStack=0;resizeParent=1;resizeParentMax=0;resizeLast=0;collapsible=1;marginBottom=0;whiteSpace=wrap;html=1;fillColor=light-dark(#A9C4EB,var(--ge-dark-color, #121212));" parent="WIyWlLk6GJQsqaUBKTNV-1" vertex="1">
          <mxGeometry x="190" y="1180" width="170" height="140" as="geometry" />
        </mxCell>
        <mxCell id="SaCOgG8UOvRfNBqPI8a1-64" value="&lt;div style=&quot;line-height: 150%;&quot;&gt;# location: Point&lt;/div&gt;&lt;div style=&quot;line-height: 150%;&quot;&gt;# Role: String&lt;/div&gt;&lt;div style=&quot;line-height: 150%;&quot;&gt;# health: int&lt;/div&gt;&lt;div style=&quot;line-height: 150%;&quot;&gt;&lt;div style=&quot;line-height: 18px;&quot;&gt;# attactPower: int&lt;/div&gt;&lt;div&gt;&lt;br&gt;&lt;/div&gt;&lt;/div&gt;" style="text;strokeColor=none;fillColor=none;align=left;verticalAlign=top;spacingLeft=4;spacingRight=4;overflow=hidden;rotatable=0;points=[[0,0.5],[1,0.5]];portConstraint=eastwest;whiteSpace=wrap;html=1;" parent="SaCOgG8UOvRfNBqPI8a1-63" vertex="1">
          <mxGeometry y="26" width="170" height="74" as="geometry" />
        </mxCell>
        <mxCell id="SaCOgG8UOvRfNBqPI8a1-65" value="" style="line;strokeWidth=1;fillColor=none;align=left;verticalAlign=middle;spacingTop=-1;spacingLeft=3;spacingRight=3;rotatable=0;labelPosition=right;points=[];portConstraint=eastwest;strokeColor=inherit;" parent="SaCOgG8UOvRfNBqPI8a1-63" vertex="1">
          <mxGeometry y="100" width="170" height="8" as="geometry" />
        </mxCell>
        <mxCell id="SaCOgG8UOvRfNBqPI8a1-66" value="&lt;div style=&quot;line-height: 150%;&quot;&gt;+ move()&lt;/div&gt;" style="text;strokeColor=none;fillColor=none;align=left;verticalAlign=top;spacingLeft=4;spacingRight=4;overflow=hidden;rotatable=0;points=[[0,0.5],[1,0.5]];portConstraint=eastwest;whiteSpace=wrap;html=1;" parent="SaCOgG8UOvRfNBqPI8a1-63" vertex="1">
          <mxGeometry y="108" width="170" height="32" as="geometry" />
        </mxCell>
        <mxCell id="5Qt55anMSwDAI13z4265-27" style="edgeStyle=orthogonalEdgeStyle;rounded=1;orthogonalLoop=1;jettySize=auto;html=1;exitX=0.5;exitY=0;exitDx=0;exitDy=0;entryX=0;entryY=0.5;entryDx=0;entryDy=0;fontSize=12;startSize=8;endSize=8;endArrow=none;startFill=0;" parent="WIyWlLk6GJQsqaUBKTNV-1" source="5Qt55anMSwDAI13z4265-0" target="5Qt55anMSwDAI13z4265-25" edge="1">
          <mxGeometry relative="1" as="geometry" />
        </mxCell>
        <mxCell id="5Qt55anMSwDAI13z4265-0" value="Ranger" style="swimlane;fontStyle=1;align=center;verticalAlign=top;childLayout=stackLayout;horizontal=1;startSize=26;horizontalStack=0;resizeParent=1;resizeParentMax=0;resizeLast=0;collapsible=1;marginBottom=0;whiteSpace=wrap;html=1;fillColor=light-dark(#CCE5FF,var(--ge-dark-color, #121212));" parent="WIyWlLk6GJQsqaUBKTNV-1" vertex="1">
          <mxGeometry x="40" y="1400" width="190" height="178" as="geometry" />
        </mxCell>
        <mxCell id="5Qt55anMSwDAI13z4265-1" value="&lt;div style=&quot;line-height: 18px;&quot;&gt;# salary: float&lt;/div&gt;&lt;div style=&quot;line-height: 150%;&quot;&gt;&lt;span style=&quot;background-color: transparent; color: light-dark(rgb(0, 0, 0), rgb(255, 255, 255));&quot;&gt;# location: point&lt;/span&gt;&lt;/div&gt;&lt;div style=&quot;line-height: 150%;&quot;&gt;&lt;span style=&quot;background-color: transparent; color: light-dark(rgb(0, 0, 0), rgb(255, 255, 255));&quot;&gt;# attactRange: int&lt;/span&gt;&lt;/div&gt;&lt;div style=&quot;line-height: 150%;&quot;&gt;# obervationLeevel: int&lt;/div&gt;" style="text;strokeColor=none;fillColor=none;align=left;verticalAlign=top;spacingLeft=4;spacingRight=4;overflow=hidden;rotatable=0;points=[[0,0.5],[1,0.5]];portConstraint=eastwest;whiteSpace=wrap;html=1;" parent="5Qt55anMSwDAI13z4265-0" vertex="1">
          <mxGeometry y="26" width="190" height="94" as="geometry" />
        </mxCell>
        <mxCell id="5Qt55anMSwDAI13z4265-2" value="" style="line;strokeWidth=1;fillColor=none;align=left;verticalAlign=middle;spacingTop=-1;spacingLeft=3;spacingRight=3;rotatable=0;labelPosition=right;points=[];portConstraint=eastwest;strokeColor=inherit;" parent="5Qt55anMSwDAI13z4265-0" vertex="1">
          <mxGeometry y="120" width="190" height="8" as="geometry" />
        </mxCell>
        <mxCell id="5Qt55anMSwDAI13z4265-3" value="&lt;div style=&quot;line-height: 150%;&quot;&gt;+ protectAnimals()&lt;/div&gt;&lt;div style=&quot;line-height: 150%;&quot;&gt;+stopPoacher(poacher: Poacher)&lt;/div&gt;" style="text;strokeColor=none;fillColor=none;align=left;verticalAlign=top;spacingLeft=4;spacingRight=4;overflow=hidden;rotatable=0;points=[[0,0.5],[1,0.5]];portConstraint=eastwest;whiteSpace=wrap;html=1;" parent="5Qt55anMSwDAI13z4265-0" vertex="1">
          <mxGeometry y="128" width="190" height="50" as="geometry" />
        </mxCell>
        <mxCell id="5Qt55anMSwDAI13z4265-4" value="Capital" style="swimlane;fontStyle=1;align=center;verticalAlign=top;childLayout=stackLayout;horizontal=1;startSize=26;horizontalStack=0;resizeParent=1;resizeParentMax=0;resizeLast=0;collapsible=1;marginBottom=0;whiteSpace=wrap;html=1;fillColor=light-dark(#E1D5E7,var(--ge-dark-color, #121212));" parent="WIyWlLk6GJQsqaUBKTNV-1" vertex="1">
          <mxGeometry x="50" y="920" width="170" height="160" as="geometry" />
        </mxCell>
        <mxCell id="5Qt55anMSwDAI13z4265-5" value="&lt;div style=&quot;line-height: 150%;&quot;&gt;- balance: float&lt;/div&gt;&lt;div style=&quot;line-height: 150%;&quot;&gt;&lt;p style=&quot;margin: 0px 0px 0px 4px;&quot;&gt;&lt;span style=&quot;background-color: transparent; color: light-dark(rgb(0, 0, 0), rgb(255, 255, 255));&quot;&gt;-&amp;nbsp;&lt;/span&gt;&lt;span style=&quot;background-color: transparent; color: light-dark(rgb(0, 0, 0), rgb(255, 255, 255));&quot;&gt;income: double&lt;/span&gt;&lt;/p&gt;&lt;p style=&quot;margin: 0px 0px 0px 4px;&quot;&gt;&lt;span style=&quot;background-color: transparent; color: light-dark(rgb(0, 0, 0), rgb(255, 255, 255));&quot;&gt;-&amp;nbsp;&lt;/span&gt;&lt;span style=&quot;background-color: transparent; color: light-dark(rgb(0, 0, 0), rgb(255, 255, 255));&quot;&gt;expenses: double&lt;/span&gt;&lt;/p&gt;&lt;/div&gt;" style="text;strokeColor=none;fillColor=none;align=left;verticalAlign=top;spacingLeft=4;spacingRight=4;overflow=hidden;rotatable=0;points=[[0,0.5],[1,0.5]];portConstraint=eastwest;whiteSpace=wrap;html=1;" parent="5Qt55anMSwDAI13z4265-4" vertex="1">
          <mxGeometry y="26" width="170" height="64" as="geometry" />
        </mxCell>
        <mxCell id="5Qt55anMSwDAI13z4265-6" value="" style="line;strokeWidth=1;fillColor=none;align=left;verticalAlign=middle;spacingTop=-1;spacingLeft=3;spacingRight=3;rotatable=0;labelPosition=right;points=[];portConstraint=eastwest;strokeColor=inherit;" parent="5Qt55anMSwDAI13z4265-4" vertex="1">
          <mxGeometry y="90" width="170" height="8" as="geometry" />
        </mxCell>
        <mxCell id="5Qt55anMSwDAI13z4265-7" value="&lt;div style=&quot;line-height: 150%;&quot;&gt;+ addFunds(amount: float)&lt;/div&gt;&lt;div style=&quot;line-height: 150%;&quot;&gt;+ deductFunds(amount: float)&lt;/div&gt;&lt;div style=&quot;line-height: 150%;&quot;&gt;+ canAfford(cost: float): bool&lt;/div&gt;" style="text;strokeColor=none;fillColor=none;align=left;verticalAlign=top;spacingLeft=4;spacingRight=4;overflow=hidden;rotatable=0;points=[[0,0.5],[1,0.5]];portConstraint=eastwest;whiteSpace=wrap;html=1;" parent="5Qt55anMSwDAI13z4265-4" vertex="1">
          <mxGeometry y="98" width="170" height="62" as="geometry" />
        </mxCell>
        <mxCell id="5Qt55anMSwDAI13z4265-28" style="edgeStyle=orthogonalEdgeStyle;rounded=1;orthogonalLoop=1;jettySize=auto;html=1;exitX=0.5;exitY=0;exitDx=0;exitDy=0;entryX=0.124;entryY=0.51;entryDx=0;entryDy=0;fontSize=12;startSize=8;endSize=8;endArrow=none;startFill=0;entryPerimeter=0;" parent="WIyWlLk6GJQsqaUBKTNV-1" source="5Qt55anMSwDAI13z4265-8" target="5Qt55anMSwDAI13z4265-25" edge="1">
          <mxGeometry relative="1" as="geometry" />
        </mxCell>
        <mxCell id="5Qt55anMSwDAI13z4265-8" value="Poahcer" style="swimlane;fontStyle=1;align=center;verticalAlign=top;childLayout=stackLayout;horizontal=1;startSize=26;horizontalStack=0;resizeParent=1;resizeParentMax=0;resizeLast=0;collapsible=1;marginBottom=0;whiteSpace=wrap;html=1;fillColor=light-dark(#CCE5FF,var(--ge-dark-color, #121212));" parent="WIyWlLk6GJQsqaUBKTNV-1" vertex="1">
          <mxGeometry x="280" y="1400" width="190" height="150" as="geometry" />
        </mxCell>
        <mxCell id="5Qt55anMSwDAI13z4265-9" value="&lt;div style=&quot;line-height: 150%;&quot;&gt;- bounty: float&lt;/div&gt;&lt;div style=&quot;line-height: 150%;&quot;&gt;- stealthLevel: int&lt;/div&gt;&lt;div style=&quot;line-height: 150%;&quot;&gt;&lt;span style=&quot;background-color: transparent; color: light-dark(rgb(0, 0, 0), rgb(255, 255, 255));&quot;&gt;- animalsHunted: Animal[]&lt;/span&gt;&lt;/div&gt;" style="text;strokeColor=none;fillColor=none;align=left;verticalAlign=top;spacingLeft=4;spacingRight=4;overflow=hidden;rotatable=0;points=[[0,0.5],[1,0.5]];portConstraint=eastwest;whiteSpace=wrap;html=1;" parent="5Qt55anMSwDAI13z4265-8" vertex="1">
          <mxGeometry y="26" width="190" height="64" as="geometry" />
        </mxCell>
        <mxCell id="5Qt55anMSwDAI13z4265-10" value="" style="line;strokeWidth=1;fillColor=none;align=left;verticalAlign=middle;spacingTop=-1;spacingLeft=3;spacingRight=3;rotatable=0;labelPosition=right;points=[];portConstraint=eastwest;strokeColor=inherit;" parent="5Qt55anMSwDAI13z4265-8" vertex="1">
          <mxGeometry y="90" width="190" height="8" as="geometry" />
        </mxCell>
        <mxCell id="5Qt55anMSwDAI13z4265-11" value="&lt;div style=&quot;line-height: 150%;&quot;&gt;+ huntAnimal(animal: Animal)&lt;/div&gt;&lt;div style=&quot;line-height: 150%;&quot;&gt;+ escapeRanger(ranger: Ranger)&lt;/div&gt;" style="text;strokeColor=none;fillColor=none;align=left;verticalAlign=top;spacingLeft=4;spacingRight=4;overflow=hidden;rotatable=0;points=[[0,0.5],[1,0.5]];portConstraint=eastwest;whiteSpace=wrap;html=1;" parent="5Qt55anMSwDAI13z4265-8" vertex="1">
          <mxGeometry y="98" width="190" height="52" as="geometry" />
        </mxCell>
        <mxCell id="5Qt55anMSwDAI13z4265-31" style="edgeStyle=orthogonalEdgeStyle;rounded=1;orthogonalLoop=1;jettySize=auto;html=1;exitX=0.457;exitY=1.026;exitDx=0;exitDy=0;fontSize=12;startSize=8;endSize=8;endArrow=none;startFill=0;exitPerimeter=0;entryX=0;entryY=0.5;entryDx=0;entryDy=0;" parent="WIyWlLk6GJQsqaUBKTNV-1" source="5Qt55anMSwDAI13z4265-15" target="5Qt55anMSwDAI13z4265-30" edge="1">
          <mxGeometry relative="1" as="geometry">
            <Array as="points">
              <mxPoint x="-42" y="1345" />
              <mxPoint x="-1" y="1345" />
              <mxPoint x="-1" y="1430" />
            </Array>
          </mxGeometry>
        </mxCell>
        <mxCell id="5Qt55anMSwDAI13z4265-12" value="ControllableRanger" style="swimlane;fontStyle=1;align=center;verticalAlign=top;childLayout=stackLayout;horizontal=1;startSize=26;horizontalStack=0;resizeParent=1;resizeParentMax=0;resizeLast=0;collapsible=1;marginBottom=0;whiteSpace=wrap;html=1;fillColor=light-dark(#D4E1F5,var(--ge-dark-color, #121212));" parent="WIyWlLk6GJQsqaUBKTNV-1" vertex="1">
          <mxGeometry x="-120" y="1182" width="170" height="90" as="geometry" />
        </mxCell>
        <mxCell id="5Qt55anMSwDAI13z4265-13" value="&lt;div style=&quot;line-height: 150%;&quot;&gt;&lt;br&gt;&lt;/div&gt;" style="text;strokeColor=none;fillColor=none;align=left;verticalAlign=top;spacingLeft=4;spacingRight=4;overflow=hidden;rotatable=0;points=[[0,0.5],[1,0.5]];portConstraint=eastwest;whiteSpace=wrap;html=1;" parent="5Qt55anMSwDAI13z4265-12" vertex="1">
          <mxGeometry y="26" width="170" height="4" as="geometry" />
        </mxCell>
        <mxCell id="5Qt55anMSwDAI13z4265-14" value="" style="line;strokeWidth=1;fillColor=none;align=left;verticalAlign=middle;spacingTop=-1;spacingLeft=3;spacingRight=3;rotatable=0;labelPosition=right;points=[];portConstraint=eastwest;strokeColor=inherit;" parent="5Qt55anMSwDAI13z4265-12" vertex="1">
          <mxGeometry y="30" width="170" height="8" as="geometry" />
        </mxCell>
        <mxCell id="5Qt55anMSwDAI13z4265-15" value="&lt;div style=&quot;line-height: 160%;&quot;&gt;&lt;div&gt;&lt;span style=&quot;background-color: transparent; color: light-dark(rgb(0, 0, 0), rgb(255, 255, 255));&quot;&gt;+ moveTo(location: Point)&lt;/span&gt;&lt;/div&gt;&lt;div&gt;+ patrolArea(area Rectangle)&lt;/div&gt;&lt;/div&gt;" style="text;strokeColor=none;fillColor=none;align=left;verticalAlign=top;spacingLeft=4;spacingRight=4;overflow=hidden;rotatable=0;points=[[0,0.5],[1,0.5]];portConstraint=eastwest;whiteSpace=wrap;html=1;" parent="5Qt55anMSwDAI13z4265-12" vertex="1">
          <mxGeometry y="38" width="170" height="52" as="geometry" />
        </mxCell>
        <mxCell id="5Qt55anMSwDAI13z4265-20" value="" style="endArrow=open;endFill=1;endSize=12;html=1;rounded=0;fontSize=12;curved=1;entryX=0.5;entryY=0;entryDx=0;entryDy=0;exitX=0.317;exitY=1.007;exitDx=0;exitDy=0;exitPerimeter=0;" parent="WIyWlLk6GJQsqaUBKTNV-1" source="SaCOgG8UOvRfNBqPI8a1-29" target="5Qt55anMSwDAI13z4265-4" edge="1">
          <mxGeometry width="160" relative="1" as="geometry">
            <mxPoint x="95" y="780" as="sourcePoint" />
            <mxPoint x="255" y="780" as="targetPoint" />
          </mxGeometry>
        </mxCell>
        <mxCell id="5Qt55anMSwDAI13z4265-52" value="Manages" style="edgeLabel;html=1;align=center;verticalAlign=middle;resizable=0;points=[];fontSize=12;" parent="5Qt55anMSwDAI13z4265-20" vertex="1" connectable="0">
          <mxGeometry x="-0.0552" y="-1" relative="1" as="geometry">
            <mxPoint as="offset" />
          </mxGeometry>
        </mxCell>
        <mxCell id="5Qt55anMSwDAI13z4265-26" style="edgeStyle=none;curved=1;rounded=0;orthogonalLoop=1;jettySize=auto;html=1;exitX=0;exitY=0.5;exitDx=0;exitDy=0;fontSize=12;startSize=8;endSize=8;endArrow=none;startFill=0;" parent="WIyWlLk6GJQsqaUBKTNV-1" source="5Qt55anMSwDAI13z4265-25" edge="1">
          <mxGeometry relative="1" as="geometry">
            <mxPoint x="275" y="1350" as="targetPoint" />
          </mxGeometry>
        </mxCell>
        <mxCell id="5Qt55anMSwDAI13z4265-25" value="" style="triangle;whiteSpace=wrap;html=1;horizontal=0;labelBackgroundColor=default;fillColor=light-dark(#000000,#000000);fontColor=#ffffff;strokeColor=#314354;direction=north;rounded=1;" parent="WIyWlLk6GJQsqaUBKTNV-1" vertex="1">
          <mxGeometry x="263.75" y="1320" width="22.5" height="20" as="geometry" />
        </mxCell>
        <mxCell id="5Qt55anMSwDAI13z4265-30" value="" style="triangle;whiteSpace=wrap;html=1;horizontal=0;labelBackgroundColor=default;fillColor=light-dark(#000000,#000000);fontColor=#ffffff;strokeColor=#314354;direction=east;rounded=1;arcSize=41;" parent="WIyWlLk6GJQsqaUBKTNV-1" vertex="1">
          <mxGeometry x="18.75" y="1418.75" width="20" height="22.5" as="geometry" />
        </mxCell>
        <mxCell id="5Qt55anMSwDAI13z4265-32" value="hunts" style="endArrow=open;endSize=12;dashed=1;html=1;rounded=1;fontSize=12;exitX=1;exitY=0.5;exitDx=0;exitDy=0;edgeStyle=orthogonalEdgeStyle;entryX=0.816;entryY=0;entryDx=0;entryDy=0;entryPerimeter=0;" parent="WIyWlLk6GJQsqaUBKTNV-1" source="5Qt55anMSwDAI13z4265-11" target="SaCOgG8UOvRfNBqPI8a1-46" edge="1">
          <mxGeometry width="160" relative="1" as="geometry">
            <mxPoint x="380" y="1630" as="sourcePoint" />
            <mxPoint x="500" y="1630" as="targetPoint" />
            <Array as="points">
              <mxPoint x="520" y="1524" />
            </Array>
          </mxGeometry>
        </mxCell>
        <mxCell id="5Qt55anMSwDAI13z4265-34" value="" style="endArrow=open;endFill=1;endSize=12;html=1;rounded=1;fontSize=12;exitX=0.63;exitY=0.99;exitDx=0;exitDy=0;exitPerimeter=0;edgeStyle=orthogonalEdgeStyle;" parent="WIyWlLk6GJQsqaUBKTNV-1" source="5Qt55anMSwDAI13z4265-3" edge="1">
          <mxGeometry width="160" relative="1" as="geometry">
            <mxPoint x="190" y="1560" as="sourcePoint" />
            <mxPoint x="316" y="1720" as="targetPoint" />
            <Array as="points">
              <mxPoint x="160" y="1720" />
            </Array>
          </mxGeometry>
        </mxCell>
        <mxCell id="5Qt55anMSwDAI13z4265-36" value="protects" style="edgeLabel;html=1;align=center;verticalAlign=middle;resizable=0;points=[];fontSize=12;" parent="5Qt55anMSwDAI13z4265-34" vertex="1" connectable="0">
          <mxGeometry x="-0.3859" relative="1" as="geometry">
            <mxPoint as="offset" />
          </mxGeometry>
        </mxCell>
        <mxCell id="5Qt55anMSwDAI13z4265-33" value="" style="endArrow=open;endFill=1;endSize=12;html=1;rounded=1;fontSize=12;edgeStyle=orthogonalEdgeStyle;entryX=0.527;entryY=1.03;entryDx=0;entryDy=0;entryPerimeter=0;exitX=0.832;exitY=0.984;exitDx=0;exitDy=0;exitPerimeter=0;" parent="WIyWlLk6GJQsqaUBKTNV-1" source="5Qt55anMSwDAI13z4265-3" target="5Qt55anMSwDAI13z4265-11" edge="1">
          <mxGeometry width="160" relative="1" as="geometry">
            <mxPoint x="230" y="1570" as="sourcePoint" />
            <mxPoint x="300" y="1560" as="targetPoint" />
            <Array as="points">
              <mxPoint x="198" y="1620" />
              <mxPoint x="380" y="1620" />
            </Array>
          </mxGeometry>
        </mxCell>
        <mxCell id="5Qt55anMSwDAI13z4265-35" value="stops" style="edgeLabel;html=1;align=center;verticalAlign=middle;resizable=0;points=[];fontSize=12;" parent="5Qt55anMSwDAI13z4265-33" vertex="1" connectable="0">
          <mxGeometry x="-0.1217" y="-2" relative="1" as="geometry">
            <mxPoint as="offset" />
          </mxGeometry>
        </mxCell>
        <mxCell id="k2wTtzufq_Mtc1FWqabc-23" style="edgeStyle=orthogonalEdgeStyle;rounded=1;orthogonalLoop=1;jettySize=auto;html=1;exitX=0.5;exitY=0;exitDx=0;exitDy=0;curved=0;endArrow=none;startFill=0;" parent="WIyWlLk6GJQsqaUBKTNV-1" source="SaCOgG8UOvRfNBqPI8a1-54" edge="1">
          <mxGeometry relative="1" as="geometry">
            <mxPoint x="650" y="1110" as="targetPoint" />
            <Array as="points">
              <mxPoint x="1052" y="1140" />
              <mxPoint x="650" y="1140" />
            </Array>
          </mxGeometry>
        </mxCell>
        <mxCell id="SaCOgG8UOvRfNBqPI8a1-54" value="Jeep&lt;span style=&quot;white-space: pre;&quot;&gt;&#x9;&lt;/span&gt;" style="swimlane;fontStyle=1;align=center;verticalAlign=top;childLayout=stackLayout;horizontal=1;startSize=26;horizontalStack=0;resizeParent=1;resizeParentMax=0;resizeLast=0;collapsible=1;marginBottom=0;whiteSpace=wrap;html=1;fillColor=light-dark(#A9C4EB,var(--ge-dark-color, #121212));" parent="WIyWlLk6GJQsqaUBKTNV-1" vertex="1">
          <mxGeometry x="961" y="1272" width="181.5" height="210" as="geometry" />
        </mxCell>
        <mxCell id="SaCOgG8UOvRfNBqPI8a1-55" value="&lt;div style=&quot;line-height: 150%;&quot;&gt;- Tourist[] passengers&lt;/div&gt;&lt;div style=&quot;line-height: 150%;&quot;&gt;- maxCapacity: int&lt;/div&gt;&lt;div style=&quot;line-height: 150%;&quot;&gt;&lt;span style=&quot;background-color: transparent; color: light-dark(rgb(0, 0, 0), rgb(255, 255, 255));&quot;&gt;- feePerRide: float&lt;/span&gt;&lt;/div&gt;&lt;div style=&quot;line-height: 150%;&quot;&gt;&lt;span style=&quot;background-color: transparent; color: light-dark(rgb(0, 0, 0), rgb(255, 255, 255));&quot;&gt;- revenue: float&lt;/span&gt;&lt;/div&gt;" style="text;strokeColor=none;fillColor=none;align=left;verticalAlign=top;spacingLeft=4;spacingRight=4;overflow=hidden;rotatable=0;points=[[0,0.5],[1,0.5]];portConstraint=eastwest;whiteSpace=wrap;html=1;" parent="SaCOgG8UOvRfNBqPI8a1-54" vertex="1">
          <mxGeometry y="26" width="181.5" height="84" as="geometry" />
        </mxCell>
        <mxCell id="SaCOgG8UOvRfNBqPI8a1-56" value="" style="line;strokeWidth=1;fillColor=none;align=left;verticalAlign=middle;spacingTop=-1;spacingLeft=3;spacingRight=3;rotatable=0;labelPosition=right;points=[];portConstraint=eastwest;strokeColor=inherit;" parent="SaCOgG8UOvRfNBqPI8a1-54" vertex="1">
          <mxGeometry y="110" width="181.5" height="8" as="geometry" />
        </mxCell>
        <mxCell id="SaCOgG8UOvRfNBqPI8a1-57" value="&lt;div style=&quot;line-height: 150%;&quot;&gt;&lt;p style=&quot;margin: 0px 0px 0px 4px;&quot;&gt;&lt;span style=&quot;background-color: transparent; color: light-dark(rgb(0, 0, 0), rgb(255, 255, 255));&quot;&gt;+ pickUpTourist(tourist: Tourist)&lt;/span&gt;&lt;/p&gt;&lt;p style=&quot;margin: 0px 0px 0px 4px;&quot;&gt;&lt;span style=&quot;background-color: transparent; color: light-dark(rgb(0, 0, 0), rgb(255, 255, 255));&quot;&gt;+ dropOffTourist()&lt;/span&gt;&lt;/p&gt;&lt;p style=&quot;margin: 0px 0px 0px 4px;&quot;&gt;&lt;span style=&quot;background-color: transparent; color: light-dark(rgb(0, 0, 0), rgb(255, 255, 255));&quot;&gt;+ calculateRevenue()&lt;/span&gt;&lt;/p&gt;&lt;p style=&quot;margin: 0px 0px 0px 4px;&quot;&gt;&lt;span style=&quot;background-color: transparent; color: light-dark(rgb(0, 0, 0), rgb(255, 255, 255));&quot;&gt;+ moveOnRoad(road: Road)&lt;/span&gt;&lt;/p&gt;&lt;/div&gt;" style="text;strokeColor=none;fillColor=none;align=left;verticalAlign=top;spacingLeft=4;spacingRight=4;overflow=hidden;rotatable=0;points=[[0,0.5],[1,0.5]];portConstraint=eastwest;whiteSpace=wrap;html=1;" parent="SaCOgG8UOvRfNBqPI8a1-54" vertex="1">
          <mxGeometry y="118" width="181.5" height="92" as="geometry" />
        </mxCell>
        <mxCell id="5Qt55anMSwDAI13z4265-41" value="" style="endArrow=open;endFill=1;endSize=12;html=1;rounded=0;fontSize=12;curved=1;exitX=-0.001;exitY=0.264;exitDx=0;exitDy=0;exitPerimeter=0;entryX=1.006;entryY=0.185;entryDx=0;entryDy=0;entryPerimeter=0;" parent="WIyWlLk6GJQsqaUBKTNV-1" source="SaCOgG8UOvRfNBqPI8a1-57" target="SaCOgG8UOvRfNBqPI8a1-61" edge="1">
          <mxGeometry width="160" relative="1" as="geometry">
            <mxPoint x="831" y="1212" as="sourcePoint" />
            <mxPoint x="871" y="1232" as="targetPoint" />
          </mxGeometry>
        </mxCell>
        <mxCell id="5Qt55anMSwDAI13z4265-43" value="uses" style="edgeLabel;html=1;align=center;verticalAlign=middle;resizable=0;points=[];fontSize=12;" parent="5Qt55anMSwDAI13z4265-41" vertex="1" connectable="0">
          <mxGeometry x="-0.0658" y="-1" relative="1" as="geometry">
            <mxPoint as="offset" />
          </mxGeometry>
        </mxCell>
        <mxCell id="5Qt55anMSwDAI13z4265-44" value="moves on" style="endArrow=open;endSize=12;dashed=1;html=1;rounded=0;fontSize=12;curved=1;exitX=-0.002;exitY=0.308;exitDx=0;exitDy=0;exitPerimeter=0;entryX=1.01;entryY=0.08;entryDx=0;entryDy=0;entryPerimeter=0;" parent="WIyWlLk6GJQsqaUBKTNV-1" source="SaCOgG8UOvRfNBqPI8a1-55" target="SaCOgG8UOvRfNBqPI8a1-58" edge="1">
          <mxGeometry width="160" relative="1" as="geometry">
            <mxPoint x="839.5" y="1482" as="sourcePoint" />
            <mxPoint x="839.5" y="1432" as="targetPoint" />
          </mxGeometry>
        </mxCell>
        <mxCell id="5Qt55anMSwDAI13z4265-45" value="rides" style="endArrow=open;endSize=12;dashed=1;html=1;rounded=1;fontSize=12;edgeStyle=orthogonalEdgeStyle;curved=0;entryX=0.493;entryY=1.016;entryDx=0;entryDy=0;entryPerimeter=0;" parent="WIyWlLk6GJQsqaUBKTNV-1" target="SaCOgG8UOvRfNBqPI8a1-57" edge="1">
          <mxGeometry width="160" relative="1" as="geometry">
            <mxPoint x="1050" y="1640" as="sourcePoint" />
            <mxPoint x="1050" y="1500" as="targetPoint" />
            <Array as="points">
              <mxPoint x="1050" y="1510" />
              <mxPoint x="1051" y="1510" />
            </Array>
          </mxGeometry>
        </mxCell>
        <mxCell id="5Qt55anMSwDAI13z4265-46" value="0..4" style="text;html=1;align=center;verticalAlign=middle;resizable=0;points=[];autosize=1;strokeColor=none;fillColor=none;fontSize=16;" parent="WIyWlLk6GJQsqaUBKTNV-1" vertex="1">
          <mxGeometry x="1045" y="1610.5" width="50" height="30" as="geometry" />
        </mxCell>
        <mxCell id="5Qt55anMSwDAI13z4265-49" value="" style="endArrow=diamondThin;endFill=0;endSize=24;html=1;rounded=0;fontSize=12;curved=1;entryX=0.484;entryY=1.001;entryDx=0;entryDy=0;entryPerimeter=0;" parent="WIyWlLk6GJQsqaUBKTNV-1" target="SaCOgG8UOvRfNBqPI8a1-33" edge="1">
          <mxGeometry width="160" relative="1" as="geometry">
            <mxPoint x="650" y="1130" as="sourcePoint" />
            <mxPoint x="660" y="1000" as="targetPoint" />
          </mxGeometry>
        </mxCell>
        <mxCell id="5Qt55anMSwDAI13z4265-53" value="" style="triangle;whiteSpace=wrap;html=1;horizontal=0;labelBackgroundColor=default;fillColor=light-dark(#000000,#000000);fontColor=#ffffff;strokeColor=#314354;direction=north;rounded=1;arcSize=50;" parent="WIyWlLk6GJQsqaUBKTNV-1" vertex="1">
          <mxGeometry x="426" y="1980" width="22.5" height="20" as="geometry" />
        </mxCell>
        <mxCell id="5Qt55anMSwDAI13z4265-54" value="Bush" style="swimlane;fontStyle=1;align=center;verticalAlign=top;childLayout=stackLayout;horizontal=1;startSize=26;horizontalStack=0;resizeParent=1;resizeParentMax=0;resizeLast=0;collapsible=1;marginBottom=0;whiteSpace=wrap;html=1;fillColor=light-dark(#CCE5FF,var(--ge-dark-color, #121212));" parent="WIyWlLk6GJQsqaUBKTNV-1" vertex="1">
          <mxGeometry x="827" y="800" width="100" height="40" as="geometry" />
        </mxCell>
        <mxCell id="5Qt55anMSwDAI13z4265-56" value="" style="line;strokeWidth=1;fillColor=none;align=left;verticalAlign=middle;spacingTop=-1;spacingLeft=3;spacingRight=3;rotatable=0;labelPosition=right;points=[];portConstraint=eastwest;strokeColor=inherit;" parent="5Qt55anMSwDAI13z4265-54" vertex="1">
          <mxGeometry y="26" width="100" height="8" as="geometry" />
        </mxCell>
        <mxCell id="5Qt55anMSwDAI13z4265-57" value="&lt;div style=&quot;line-height: 150%;&quot;&gt;&lt;br&gt;&lt;/div&gt;" style="text;strokeColor=none;fillColor=none;align=left;verticalAlign=top;spacingLeft=4;spacingRight=4;overflow=hidden;rotatable=0;points=[[0,0.5],[1,0.5]];portConstraint=eastwest;whiteSpace=wrap;html=1;" parent="5Qt55anMSwDAI13z4265-54" vertex="1">
          <mxGeometry y="34" width="100" height="6" as="geometry" />
        </mxCell>
        <mxCell id="5Qt55anMSwDAI13z4265-58" value="Tree&lt;span style=&quot;color: rgba(0, 0, 0, 0); font-family: monospace; font-size: 0px; font-weight: 400; text-align: start; text-wrap-mode: nowrap;&quot;&gt;%3CmxGraphModel%3E%3Croot%3E%3CmxCell%20id%3D%220%22%2F%3E%3CmxCell%20id%3D%221%22%20parent%3D%220%22%2F%3E%3CmxCell%20id%3D%222%22%20value%3D%22Bush%22%20style%3D%22swimlane%3BfontStyle%3D1%3Balign%3Dcenter%3BverticalAlign%3Dtop%3BchildLayout%3DstackLayout%3Bhorizontal%3D1%3BstartSize%3D26%3BhorizontalStack%3D0%3BresizeParent%3D1%3BresizeParentMax%3D0%3BresizeLast%3D0%3Bcollapsible%3D1%3BmarginBottom%3D0%3BwhiteSpace%3Dwrap%3Bhtml%3D1%3B%22%20vertex%3D%221%22%20parent%3D%221%22%3E%3CmxGeometry%20x%3D%2230%22%20y%3D%222200%22%20width%3D%22100%22%20height%3D%2240%22%20as%3D%22geometry%22%2F%3E%3C%2FmxCell%3E%3CmxCell%20id%3D%223%22%20value%3D%22%22%20style%3D%22line%3BstrokeWidth%3D1%3BfillColor%3Dnone%3Balign%3Dleft%3BverticalAlign%3Dmiddle%3BspacingTop%3D-1%3BspacingLeft%3D3%3BspacingRight%3D3%3Brotatable%3D0%3BlabelPosition%3Dright%3Bpoints%3D%5B%5D%3BportConstraint%3Deastwest%3BstrokeColor%3Dinherit%3B%22%20vertex%3D%221%22%20parent%3D%222%22%3E%3CmxGeometry%20y%3D%2226%22%20width%3D%22100%22%20height%3D%228%22%20as%3D%22geometry%22%2F%3E%3C%2FmxCell%3E%3CmxCell%20id%3D%224%22%20value%3D%22%26lt%3Bdiv%20style%3D%26quot%3Bline-height%3A%20150%25%3B%26quot%3B%26gt%3B%26lt%3Bbr%26gt%3B%26lt%3B%2Fdiv%26gt%3B%22%20style%3D%22text%3BstrokeColor%3Dnone%3BfillColor%3Dnone%3Balign%3Dleft%3BverticalAlign%3Dtop%3BspacingLeft%3D4%3BspacingRight%3D4%3Boverflow%3Dhidden%3Brotatable%3D0%3Bpoints%3D%5B%5B0%2C0.5%5D%2C%5B1%2C0.5%5D%5D%3BportConstraint%3Deastwest%3BwhiteSpace%3Dwrap%3Bhtml%3D1%3B%22%20vertex%3D%221%22%20parent%3D%222%22%3E%3CmxGeometry%20y%3D%2234%22%20width%3D%22100%22%20height%3D%226%22%20as%3D%22geometry%22%2F%3E%3C%2FmxCell%3E%3C%2Froot%3E%3C%2FmxGraphModel%3E&lt;/span&gt;" style="swimlane;fontStyle=1;align=center;verticalAlign=top;childLayout=stackLayout;horizontal=1;startSize=26;horizontalStack=0;resizeParent=1;resizeParentMax=0;resizeLast=0;collapsible=1;marginBottom=0;whiteSpace=wrap;html=1;fillColor=light-dark(#CCE5FF,var(--ge-dark-color, #121212));" parent="WIyWlLk6GJQsqaUBKTNV-1" vertex="1">
          <mxGeometry x="935" y="800" width="100" height="40" as="geometry" />
        </mxCell>
        <mxCell id="5Qt55anMSwDAI13z4265-59" value="" style="line;strokeWidth=1;fillColor=none;align=left;verticalAlign=middle;spacingTop=-1;spacingLeft=3;spacingRight=3;rotatable=0;labelPosition=right;points=[];portConstraint=eastwest;strokeColor=inherit;" parent="5Qt55anMSwDAI13z4265-58" vertex="1">
          <mxGeometry y="26" width="100" height="8" as="geometry" />
        </mxCell>
        <mxCell id="5Qt55anMSwDAI13z4265-60" value="&lt;div style=&quot;line-height: 150%;&quot;&gt;&lt;br&gt;&lt;/div&gt;" style="text;strokeColor=none;fillColor=none;align=left;verticalAlign=top;spacingLeft=4;spacingRight=4;overflow=hidden;rotatable=0;points=[[0,0.5],[1,0.5]];portConstraint=eastwest;whiteSpace=wrap;html=1;" parent="5Qt55anMSwDAI13z4265-58" vertex="1">
          <mxGeometry y="34" width="100" height="6" as="geometry" />
        </mxCell>
        <mxCell id="5Qt55anMSwDAI13z4265-61" value="Grass" style="swimlane;fontStyle=1;align=center;verticalAlign=top;childLayout=stackLayout;horizontal=1;startSize=26;horizontalStack=0;resizeParent=1;resizeParentMax=0;resizeLast=0;collapsible=1;marginBottom=0;whiteSpace=wrap;html=1;fillColor=light-dark(#CCE5FF,var(--ge-dark-color, #121212));" parent="WIyWlLk6GJQsqaUBKTNV-1" vertex="1">
          <mxGeometry x="1045" y="800" width="100" height="40" as="geometry" />
        </mxCell>
        <mxCell id="5Qt55anMSwDAI13z4265-62" value="" style="line;strokeWidth=1;fillColor=none;align=left;verticalAlign=middle;spacingTop=-1;spacingLeft=3;spacingRight=3;rotatable=0;labelPosition=right;points=[];portConstraint=eastwest;strokeColor=inherit;" parent="5Qt55anMSwDAI13z4265-61" vertex="1">
          <mxGeometry y="26" width="100" height="8" as="geometry" />
        </mxCell>
        <mxCell id="5Qt55anMSwDAI13z4265-63" value="&lt;div style=&quot;line-height: 150%;&quot;&gt;&lt;br&gt;&lt;/div&gt;" style="text;strokeColor=none;fillColor=none;align=left;verticalAlign=top;spacingLeft=4;spacingRight=4;overflow=hidden;rotatable=0;points=[[0,0.5],[1,0.5]];portConstraint=eastwest;whiteSpace=wrap;html=1;" parent="5Qt55anMSwDAI13z4265-61" vertex="1">
          <mxGeometry y="34" width="100" height="6" as="geometry" />
        </mxCell>
        <mxCell id="5Qt55anMSwDAI13z4265-89" style="edgeStyle=orthogonalEdgeStyle;rounded=1;orthogonalLoop=1;jettySize=auto;html=1;exitX=0.5;exitY=0;exitDx=0;exitDy=0;entryX=0;entryY=0.5;entryDx=0;entryDy=0;fontSize=12;startSize=8;endSize=8;endArrow=none;startFill=0;" parent="WIyWlLk6GJQsqaUBKTNV-1" source="5Qt55anMSwDAI13z4265-64" target="5Qt55anMSwDAI13z4265-53" edge="1">
          <mxGeometry relative="1" as="geometry" />
        </mxCell>
        <mxCell id="5Qt55anMSwDAI13z4265-64" value="Herbivore" style="swimlane;fontStyle=1;align=center;verticalAlign=top;childLayout=stackLayout;horizontal=1;startSize=26;horizontalStack=0;resizeParent=1;resizeParentMax=0;resizeLast=0;collapsible=1;marginBottom=0;whiteSpace=wrap;html=1;fillColor=light-dark(#99CCFF,var(--ge-dark-color, #121212));" parent="WIyWlLk6GJQsqaUBKTNV-1" vertex="1">
          <mxGeometry x="210" y="2040" width="160" height="70" as="geometry" />
        </mxCell>
        <mxCell id="5Qt55anMSwDAI13z4265-66" value="" style="line;strokeWidth=1;fillColor=none;align=left;verticalAlign=middle;spacingTop=-1;spacingLeft=3;spacingRight=3;rotatable=0;labelPosition=right;points=[];portConstraint=eastwest;strokeColor=inherit;" parent="5Qt55anMSwDAI13z4265-64" vertex="1">
          <mxGeometry y="26" width="160" height="8" as="geometry" />
        </mxCell>
        <mxCell id="5Qt55anMSwDAI13z4265-67" value="&lt;div style=&quot;line-height: 150%;&quot;&gt;+ eatPlants(plant: Plant)&lt;/div&gt;" style="text;strokeColor=none;fillColor=none;align=left;verticalAlign=top;spacingLeft=4;spacingRight=4;overflow=hidden;rotatable=0;points=[[0,0.5],[1,0.5]];portConstraint=eastwest;whiteSpace=wrap;html=1;" parent="5Qt55anMSwDAI13z4265-64" vertex="1">
          <mxGeometry y="34" width="160" height="36" as="geometry" />
        </mxCell>
        <mxCell id="5Qt55anMSwDAI13z4265-90" style="edgeStyle=orthogonalEdgeStyle;rounded=1;orthogonalLoop=1;jettySize=auto;html=1;exitX=0.5;exitY=0;exitDx=0;exitDy=0;entryX=0;entryY=0.5;entryDx=0;entryDy=0;fontSize=12;startSize=8;endSize=8;endArrow=none;startFill=0;curved=0;" parent="WIyWlLk6GJQsqaUBKTNV-1" source="5Qt55anMSwDAI13z4265-68" target="5Qt55anMSwDAI13z4265-53" edge="1">
          <mxGeometry relative="1" as="geometry" />
        </mxCell>
        <mxCell id="5Qt55anMSwDAI13z4265-68" value="Carnivore" style="swimlane;fontStyle=1;align=center;verticalAlign=top;childLayout=stackLayout;horizontal=1;startSize=26;horizontalStack=0;resizeParent=1;resizeParentMax=0;resizeLast=0;collapsible=1;marginBottom=0;whiteSpace=wrap;html=1;fillColor=light-dark(#99CCFF,var(--ge-dark-color, #121212));" parent="WIyWlLk6GJQsqaUBKTNV-1" vertex="1">
          <mxGeometry x="516" y="2040" width="160" height="70" as="geometry" />
        </mxCell>
        <mxCell id="5Qt55anMSwDAI13z4265-69" value="" style="line;strokeWidth=1;fillColor=none;align=left;verticalAlign=middle;spacingTop=-1;spacingLeft=3;spacingRight=3;rotatable=0;labelPosition=right;points=[];portConstraint=eastwest;strokeColor=inherit;" parent="5Qt55anMSwDAI13z4265-68" vertex="1">
          <mxGeometry y="26" width="160" height="8" as="geometry" />
        </mxCell>
        <mxCell id="5Qt55anMSwDAI13z4265-70" value="&lt;div style=&quot;line-height: 150%;&quot;&gt;+ hunt(herbivor: Herbivore)&lt;/div&gt;" style="text;strokeColor=none;fillColor=none;align=left;verticalAlign=top;spacingLeft=4;spacingRight=4;overflow=hidden;rotatable=0;points=[[0,0.5],[1,0.5]];portConstraint=eastwest;whiteSpace=wrap;html=1;" parent="5Qt55anMSwDAI13z4265-68" vertex="1">
          <mxGeometry y="34" width="160" height="36" as="geometry" />
        </mxCell>
        <mxCell id="5Qt55anMSwDAI13z4265-85" value="" style="triangle;whiteSpace=wrap;html=1;horizontal=0;labelBackgroundColor=default;fillColor=light-dark(#000000,#000000);fontColor=#ffffff;strokeColor=#314354;direction=south;rounded=1;arcSize=50;" parent="WIyWlLk6GJQsqaUBKTNV-1" vertex="1">
          <mxGeometry x="973.75" y="940" width="22.5" height="20" as="geometry" />
        </mxCell>
        <mxCell id="5Qt55anMSwDAI13z4265-92" value="*" style="text;html=1;align=center;verticalAlign=middle;resizable=0;points=[];autosize=1;strokeColor=none;fillColor=none;fontSize=16;" parent="WIyWlLk6GJQsqaUBKTNV-1" vertex="1">
          <mxGeometry x="370" y="1080" width="24" height="31" as="geometry" />
        </mxCell>
        <mxCell id="5Qt55anMSwDAI13z4265-93" value="*" style="text;html=1;align=center;verticalAlign=middle;resizable=0;points=[];autosize=1;strokeColor=none;fillColor=none;fontSize=16;" parent="WIyWlLk6GJQsqaUBKTNV-1" vertex="1">
          <mxGeometry x="271" y="1151" width="24" height="31" as="geometry" />
        </mxCell>
        <mxCell id="5Qt55anMSwDAI13z4265-94" value="*" style="text;html=1;align=center;verticalAlign=middle;resizable=0;points=[];autosize=1;strokeColor=none;fillColor=none;fontSize=16;" parent="WIyWlLk6GJQsqaUBKTNV-1" vertex="1">
          <mxGeometry x="570" y="1754" width="24" height="31" as="geometry" />
        </mxCell>
        <mxCell id="5Qt55anMSwDAI13z4265-96" value="*" style="text;html=1;align=center;verticalAlign=middle;resizable=0;points=[];autosize=1;strokeColor=none;fillColor=none;fontSize=16;" parent="WIyWlLk6GJQsqaUBKTNV-1" vertex="1">
          <mxGeometry x="961" y="1098" width="24" height="31" as="geometry" />
        </mxCell>
        <mxCell id="5Qt55anMSwDAI13z4265-97" value="*" style="text;html=1;align=center;verticalAlign=middle;resizable=0;points=[];autosize=1;strokeColor=none;fillColor=none;fontSize=16;" parent="WIyWlLk6GJQsqaUBKTNV-1" vertex="1">
          <mxGeometry x="1000" y="1340" width="24" height="31" as="geometry" />
        </mxCell>
        <mxCell id="5Qt55anMSwDAI13z4265-16" value="Tourist" style="swimlane;fontStyle=1;align=center;verticalAlign=top;childLayout=stackLayout;horizontal=1;startSize=26;horizontalStack=0;resizeParent=1;resizeParentMax=0;resizeLast=0;collapsible=1;marginBottom=0;whiteSpace=wrap;html=1;fillColor=light-dark(#E1D5E7,var(--ge-dark-color, #121212));" parent="WIyWlLk6GJQsqaUBKTNV-1" vertex="1">
          <mxGeometry x="973.75" y="1640.5" width="160" height="150" as="geometry" />
        </mxCell>
        <mxCell id="5Qt55anMSwDAI13z4265-17" value="&lt;div style=&quot;line-height: 150%;&quot;&gt;&lt;p style=&quot;margin: 0px 0px 0px 4px;&quot;&gt;&lt;span style=&quot;background-color: transparent; color: light-dark(rgb(0, 0, 0), rgb(255, 255, 255));&quot;&gt;- happinessLevel: int&lt;/span&gt;&lt;/p&gt;&lt;p style=&quot;margin: 0px 0px 0px 4px;&quot;&gt;&lt;span style=&quot;background-color: transparent; color: light-dark(rgb(0, 0, 0), rgb(255, 255, 255));&quot;&gt;- observedAnimals: Animal[]&lt;/span&gt;&lt;/p&gt;&lt;/div&gt;" style="text;strokeColor=none;fillColor=none;align=left;verticalAlign=top;spacingLeft=4;spacingRight=4;overflow=hidden;rotatable=0;points=[[0,0.5],[1,0.5]];portConstraint=eastwest;whiteSpace=wrap;html=1;" parent="5Qt55anMSwDAI13z4265-16" vertex="1">
          <mxGeometry y="26" width="160" height="44" as="geometry" />
        </mxCell>
        <mxCell id="5Qt55anMSwDAI13z4265-18" value="" style="line;strokeWidth=1;fillColor=none;align=left;verticalAlign=middle;spacingTop=-1;spacingLeft=3;spacingRight=3;rotatable=0;labelPosition=right;points=[];portConstraint=eastwest;strokeColor=inherit;" parent="5Qt55anMSwDAI13z4265-16" vertex="1">
          <mxGeometry y="70" width="160" height="8" as="geometry" />
        </mxCell>
        <mxCell id="5Qt55anMSwDAI13z4265-19" value="&lt;div style=&quot;line-height: 150%;&quot;&gt;+ observeAnimals()&lt;/div&gt;&lt;div style=&quot;line-height: 150%;&quot;&gt;+ buyAnimals(cost: float)&lt;/div&gt;&lt;div style=&quot;line-height: 150%;&quot;&gt;+ updateHappinessLevel()&lt;/div&gt;" style="text;strokeColor=none;fillColor=none;align=left;verticalAlign=top;spacingLeft=4;spacingRight=4;overflow=hidden;rotatable=0;points=[[0,0.5],[1,0.5]];portConstraint=eastwest;whiteSpace=wrap;html=1;" parent="5Qt55anMSwDAI13z4265-16" vertex="1">
          <mxGeometry y="78" width="160" height="72" as="geometry" />
        </mxCell>
        <mxCell id="k2wTtzufq_Mtc1FWqabc-15" style="edgeStyle=orthogonalEdgeStyle;rounded=1;orthogonalLoop=1;jettySize=auto;html=1;exitX=0;exitY=0.5;exitDx=0;exitDy=0;entryX=0.526;entryY=1.128;entryDx=0;entryDy=0;entryPerimeter=0;endArrow=none;startFill=0;curved=0;" parent="WIyWlLk6GJQsqaUBKTNV-1" source="5Qt55anMSwDAI13z4265-85" target="5Qt55anMSwDAI13z4265-57" edge="1">
          <mxGeometry relative="1" as="geometry" />
        </mxCell>
        <mxCell id="k2wTtzufq_Mtc1FWqabc-16" style="edgeStyle=orthogonalEdgeStyle;rounded=0;orthogonalLoop=1;jettySize=auto;html=1;exitX=0;exitY=0.5;exitDx=0;exitDy=0;entryX=0.494;entryY=1.149;entryDx=0;entryDy=0;entryPerimeter=0;endArrow=none;startFill=0;" parent="WIyWlLk6GJQsqaUBKTNV-1" source="5Qt55anMSwDAI13z4265-85" target="5Qt55anMSwDAI13z4265-60" edge="1">
          <mxGeometry relative="1" as="geometry" />
        </mxCell>
        <mxCell id="k2wTtzufq_Mtc1FWqabc-17" style="rounded=1;orthogonalLoop=1;jettySize=auto;html=1;exitX=0;exitY=0.5;exitDx=0;exitDy=0;entryX=0.546;entryY=1.094;entryDx=0;entryDy=0;entryPerimeter=0;endArrow=none;startFill=0;edgeStyle=orthogonalEdgeStyle;curved=0;" parent="WIyWlLk6GJQsqaUBKTNV-1" source="5Qt55anMSwDAI13z4265-85" target="5Qt55anMSwDAI13z4265-63" edge="1">
          <mxGeometry relative="1" as="geometry" />
        </mxCell>
        <mxCell id="k2wTtzufq_Mtc1FWqabc-22" value="*" style="text;html=1;align=center;verticalAlign=middle;resizable=0;points=[];autosize=1;strokeColor=none;fillColor=none;fontSize=16;" parent="WIyWlLk6GJQsqaUBKTNV-1" vertex="1">
          <mxGeometry x="1058" y="1240" width="24" height="31" as="geometry" />
        </mxCell>
        <mxCell id="k2wTtzufq_Mtc1FWqabc-27" value="*" style="text;html=1;align=center;verticalAlign=middle;resizable=0;points=[];autosize=1;strokeColor=none;fillColor=none;fontSize=16;" parent="WIyWlLk6GJQsqaUBKTNV-1" vertex="1">
          <mxGeometry x="760" y="1289" width="24" height="31" as="geometry" />
        </mxCell>
        <mxCell id="k2wTtzufq_Mtc1FWqabc-205" value="" style="rounded=1;whiteSpace=wrap;html=1;strokeColor=#000000;fontColor=#333333;fillColor=#f5f5f5;fontStyle=1" parent="WIyWlLk6GJQsqaUBKTNV-1" vertex="1">
          <mxGeometry x="-80" y="40" width="320" height="420" as="geometry" />
        </mxCell>
        <mxCell id="k2wTtzufq_Mtc1FWqabc-206" value="" style="endArrow=open;endSize=12;dashed=1;html=1;rounded=0;strokeColor=#000000;fontSize=12;curved=1;fontStyle=1" parent="WIyWlLk6GJQsqaUBKTNV-1" edge="1">
          <mxGeometry width="160" relative="1" as="geometry">
            <mxPoint x="-60" y="89.44000000000005" as="sourcePoint" />
            <mxPoint x="220" y="89.44000000000005" as="targetPoint" />
          </mxGeometry>
        </mxCell>
        <mxCell id="k2wTtzufq_Mtc1FWqabc-207" value="" style="endArrow=open;endFill=1;endSize=12;html=1;rounded=0;strokeColor=#000000;fontSize=12;curved=1;fontStyle=1" parent="WIyWlLk6GJQsqaUBKTNV-1" edge="1">
          <mxGeometry width="160" relative="1" as="geometry">
            <mxPoint x="-60" y="169.44000000000005" as="sourcePoint" />
            <mxPoint x="220" y="169.44000000000005" as="targetPoint" />
          </mxGeometry>
        </mxCell>
        <mxCell id="k2wTtzufq_Mtc1FWqabc-208" value="" style="endArrow=block;endFill=1;html=1;edgeStyle=orthogonalEdgeStyle;align=left;verticalAlign=top;rounded=0;strokeColor=#000000;fontSize=12;startSize=8;endSize=8;curved=1;entryX=0.779;entryY=0.538;entryDx=0;entryDy=0;entryPerimeter=0;fontStyle=1" parent="WIyWlLk6GJQsqaUBKTNV-1" edge="1">
          <mxGeometry x="-1" relative="1" as="geometry">
            <mxPoint x="-60" y="249.44000000000005" as="sourcePoint" />
            <mxPoint x="216" y="250" as="targetPoint" />
            <Array as="points">
              <mxPoint x="150" y="249.44000000000005" />
            </Array>
          </mxGeometry>
        </mxCell>
        <mxCell id="k2wTtzufq_Mtc1FWqabc-209" value="1" style="edgeLabel;resizable=0;html=1;align=left;verticalAlign=bottom;strokeColor=#000000;fontColor=#FFFFFF;fillColor=#182E3E;fontStyle=1" parent="k2wTtzufq_Mtc1FWqabc-208" connectable="0" vertex="1">
          <mxGeometry x="-1" relative="1" as="geometry" />
        </mxCell>
        <mxCell id="k2wTtzufq_Mtc1FWqabc-210" value="" style="endArrow=diamondThin;endFill=0;endSize=24;html=1;rounded=0;strokeColor=#000000;fontSize=12;curved=1;fontStyle=1" parent="WIyWlLk6GJQsqaUBKTNV-1" edge="1">
          <mxGeometry width="160" relative="1" as="geometry">
            <mxPoint x="-60" y="329.44000000000005" as="sourcePoint" />
            <mxPoint x="220" y="329.44000000000005" as="targetPoint" />
          </mxGeometry>
        </mxCell>
        <mxCell id="k2wTtzufq_Mtc1FWqabc-211" value="" style="endArrow=diamondThin;endFill=1;endSize=24;html=1;rounded=0;strokeColor=#000000;fontSize=12;curved=1;fontStyle=1" parent="WIyWlLk6GJQsqaUBKTNV-1" edge="1">
          <mxGeometry width="160" relative="1" as="geometry">
            <mxPoint x="-60" y="408.6700000000001" as="sourcePoint" />
            <mxPoint x="220" y="409.44000000000005" as="targetPoint" />
          </mxGeometry>
        </mxCell>
        <mxCell id="k2wTtzufq_Mtc1FWqabc-212" value="&lt;font style=&quot;color: rgb(0, 0, 0); font-size: 16px;&quot;&gt;&lt;span&gt;Dependency&lt;/span&gt;&lt;/font&gt;" style="text;html=1;align=center;verticalAlign=middle;whiteSpace=wrap;rounded=0;fontColor=#FFFFFF;strokeColor=none;fontStyle=1" parent="WIyWlLk6GJQsqaUBKTNV-1" vertex="1">
          <mxGeometry y="90" width="140" height="30" as="geometry" />
        </mxCell>
        <mxCell id="k2wTtzufq_Mtc1FWqabc-213" value="&lt;font style=&quot;color: rgb(0, 0, 0); font-size: 16px;&quot;&gt;&lt;span&gt;Association&lt;/span&gt;&lt;/font&gt;" style="text;html=1;align=center;verticalAlign=middle;whiteSpace=wrap;rounded=0;fontColor=#FFFFFF;strokeColor=none;fontStyle=1" parent="WIyWlLk6GJQsqaUBKTNV-1" vertex="1">
          <mxGeometry y="170" width="140" height="30" as="geometry" />
        </mxCell>
        <mxCell id="k2wTtzufq_Mtc1FWqabc-214" value="&lt;font style=&quot;color: rgb(0, 0, 0); font-size: 16px;&quot;&gt;&lt;span&gt;Inheritance&lt;/span&gt;&lt;/font&gt;" style="text;html=1;align=center;verticalAlign=middle;whiteSpace=wrap;rounded=0;fontColor=#FFFFFF;strokeColor=none;fontStyle=1" parent="WIyWlLk6GJQsqaUBKTNV-1" vertex="1">
          <mxGeometry y="250" width="140" height="30" as="geometry" />
        </mxCell>
        <mxCell id="k2wTtzufq_Mtc1FWqabc-215" value="&lt;font style=&quot;color: rgb(0, 0, 0); font-size: 16px;&quot;&gt;&lt;span&gt;Aggregation&lt;/span&gt;&lt;/font&gt;" style="text;html=1;align=center;verticalAlign=middle;whiteSpace=wrap;rounded=0;fontColor=#FFFFFF;strokeColor=none;fontStyle=1" parent="WIyWlLk6GJQsqaUBKTNV-1" vertex="1">
          <mxGeometry y="330" width="140" height="30" as="geometry" />
        </mxCell>
        <mxCell id="k2wTtzufq_Mtc1FWqabc-216" value="&lt;font style=&quot;color: rgb(0, 0, 0); font-size: 16px;&quot;&gt;&lt;span&gt;Composition&lt;/span&gt;&lt;/font&gt;" style="text;html=1;align=center;verticalAlign=middle;whiteSpace=wrap;rounded=0;fontColor=#FFFFFF;strokeColor=none;fontStyle=1" parent="WIyWlLk6GJQsqaUBKTNV-1" vertex="1">
          <mxGeometry y="410" width="140" height="30" as="geometry" />
        </mxCell>
        <mxCell id="Pg9ErtlGWTGq2y22SoNs-0" style="rounded=1;orthogonalLoop=1;jettySize=auto;html=1;exitX=1;exitY=0.5;exitDx=0;exitDy=0;edgeStyle=orthogonalEdgeStyle;endArrow=none;startFill=0;" edge="1" parent="WIyWlLk6GJQsqaUBKTNV-1" source="5Qt55anMSwDAI13z4265-17">
          <mxGeometry relative="1" as="geometry">
            <mxPoint x="610" y="310" as="targetPoint" />
            <Array as="points">
              <mxPoint x="1180" y="1689" />
              <mxPoint x="1180" y="380" />
              <mxPoint x="710" y="380" />
              <mxPoint x="710" y="310" />
            </Array>
          </mxGeometry>
        </mxCell>
        <mxCell id="Pg9ErtlGWTGq2y22SoNs-3" value="&lt;b&gt;Model&lt;/b&gt;" style="rounded=1;whiteSpace=wrap;html=1;fillColor=#dae8fc;strokeColor=#6c8ebf;gradientColor=#7ea6e0;" vertex="1" parent="WIyWlLk6GJQsqaUBKTNV-1">
          <mxGeometry x="600" y="-40" width="600" height="60" as="geometry" />
        </mxCell>
        <mxCell id="Pg9ErtlGWTGq2y22SoNs-27" style="edgeStyle=orthogonalEdgeStyle;rounded=1;orthogonalLoop=1;jettySize=auto;html=1;exitX=0.126;exitY=0.978;exitDx=0;exitDy=0;entryX=-0.005;entryY=0.41;entryDx=0;entryDy=0;entryPerimeter=0;curved=0;exitPerimeter=0;" edge="1" parent="WIyWlLk6GJQsqaUBKTNV-1" source="Pg9ErtlGWTGq2y22SoNs-11" target="SaCOgG8UOvRfNBqPI8a1-2">
          <mxGeometry relative="1" as="geometry" />
        </mxCell>
        <mxCell id="Pg9ErtlGWTGq2y22SoNs-8" value="MapView" style="swimlane;fontStyle=1;align=center;verticalAlign=top;childLayout=stackLayout;horizontal=1;startSize=26;horizontalStack=0;resizeParent=1;resizeParentMax=0;resizeLast=0;collapsible=1;marginBottom=0;whiteSpace=wrap;html=1;fillColor=#cdeb8b;strokeColor=#36393d;" vertex="1" parent="WIyWlLk6GJQsqaUBKTNV-1">
          <mxGeometry x="280" y="-240" width="160" height="60" as="geometry" />
        </mxCell>
        <mxCell id="Pg9ErtlGWTGq2y22SoNs-10" value="" style="line;strokeWidth=1;fillColor=none;align=left;verticalAlign=middle;spacingTop=-1;spacingLeft=3;spacingRight=3;rotatable=0;labelPosition=right;points=[];portConstraint=eastwest;strokeColor=inherit;" vertex="1" parent="Pg9ErtlGWTGq2y22SoNs-8">
          <mxGeometry y="26" width="160" height="8" as="geometry" />
        </mxCell>
        <mxCell id="Pg9ErtlGWTGq2y22SoNs-11" value="+ renderMap()" style="text;strokeColor=none;fillColor=none;align=left;verticalAlign=top;spacingLeft=4;spacingRight=4;overflow=hidden;rotatable=0;points=[[0,0.5],[1,0.5]];portConstraint=eastwest;whiteSpace=wrap;html=1;" vertex="1" parent="Pg9ErtlGWTGq2y22SoNs-8">
          <mxGeometry y="34" width="160" height="26" as="geometry" />
        </mxCell>
        <mxCell id="Pg9ErtlGWTGq2y22SoNs-12" value="UIElement" style="swimlane;fontStyle=1;align=center;verticalAlign=top;childLayout=stackLayout;horizontal=1;startSize=26;horizontalStack=0;resizeParent=1;resizeParentMax=0;resizeLast=0;collapsible=1;marginBottom=0;whiteSpace=wrap;html=1;fillColor=#cdeb8b;strokeColor=#36393d;" vertex="1" parent="WIyWlLk6GJQsqaUBKTNV-1">
          <mxGeometry x="80" y="-240" width="160" height="80" as="geometry" />
        </mxCell>
        <mxCell id="Pg9ErtlGWTGq2y22SoNs-13" value="" style="line;strokeWidth=1;fillColor=none;align=left;verticalAlign=middle;spacingTop=-1;spacingLeft=3;spacingRight=3;rotatable=0;labelPosition=right;points=[];portConstraint=eastwest;strokeColor=inherit;" vertex="1" parent="Pg9ErtlGWTGq2y22SoNs-12">
          <mxGeometry y="26" width="160" height="8" as="geometry" />
        </mxCell>
        <mxCell id="Pg9ErtlGWTGq2y22SoNs-14" value="&lt;div style=&quot;line-height: 150%;&quot;&gt;&lt;font style=&quot;line-height: 150%;&quot;&gt;+ renderUI()&lt;/font&gt;&lt;div&gt;&lt;font style=&quot;line-height: 150%;&quot;&gt;+ renderMiniMap()&lt;/font&gt;&lt;/div&gt;&lt;/div&gt;" style="text;strokeColor=none;fillColor=none;align=left;verticalAlign=top;spacingLeft=4;spacingRight=4;overflow=hidden;rotatable=0;points=[[0,0.5],[1,0.5]];portConstraint=eastwest;whiteSpace=wrap;html=1;" vertex="1" parent="Pg9ErtlGWTGq2y22SoNs-12">
          <mxGeometry y="34" width="160" height="46" as="geometry" />
        </mxCell>
        <mxCell id="Pg9ErtlGWTGq2y22SoNs-15" value="GameView" style="swimlane;fontStyle=1;align=center;verticalAlign=top;childLayout=stackLayout;horizontal=1;startSize=26;horizontalStack=0;resizeParent=1;resizeParentMax=0;resizeLast=0;collapsible=1;marginBottom=0;whiteSpace=wrap;html=1;fillColor=#cdeb8b;strokeColor=#36393d;" vertex="1" parent="WIyWlLk6GJQsqaUBKTNV-1">
          <mxGeometry x="480" y="-240" width="160" height="60" as="geometry" />
        </mxCell>
        <mxCell id="Pg9ErtlGWTGq2y22SoNs-16" value="" style="line;strokeWidth=1;fillColor=none;align=left;verticalAlign=middle;spacingTop=-1;spacingLeft=3;spacingRight=3;rotatable=0;labelPosition=right;points=[];portConstraint=eastwest;strokeColor=inherit;" vertex="1" parent="Pg9ErtlGWTGq2y22SoNs-15">
          <mxGeometry y="26" width="160" height="8" as="geometry" />
        </mxCell>
        <mxCell id="Pg9ErtlGWTGq2y22SoNs-17" value="+ renderGame()" style="text;strokeColor=none;fillColor=none;align=left;verticalAlign=top;spacingLeft=4;spacingRight=4;overflow=hidden;rotatable=0;points=[[0,0.5],[1,0.5]];portConstraint=eastwest;whiteSpace=wrap;html=1;" vertex="1" parent="Pg9ErtlGWTGq2y22SoNs-15">
          <mxGeometry y="34" width="160" height="26" as="geometry" />
        </mxCell>
        <mxCell id="Pg9ErtlGWTGq2y22SoNs-30" style="edgeStyle=orthogonalEdgeStyle;rounded=1;orthogonalLoop=1;jettySize=auto;html=1;exitX=0.5;exitY=1;exitDx=0;exitDy=0;entryX=1;entryY=0.5;entryDx=0;entryDy=0;curved=0;" edge="1" parent="WIyWlLk6GJQsqaUBKTNV-1" source="Pg9ErtlGWTGq2y22SoNs-18" target="SaCOgG8UOvRfNBqPI8a1-49">
          <mxGeometry relative="1" as="geometry">
            <mxPoint x="1261" y="1936.4000651041667" as="targetPoint" />
            <Array as="points">
              <mxPoint x="761" y="-120" />
              <mxPoint x="1280" y="-120" />
              <mxPoint x="1280" y="1924" />
            </Array>
          </mxGeometry>
        </mxCell>
        <mxCell id="Pg9ErtlGWTGq2y22SoNs-18" value="AnimalView" style="swimlane;fontStyle=1;align=center;verticalAlign=top;childLayout=stackLayout;horizontal=1;startSize=26;horizontalStack=0;resizeParent=1;resizeParentMax=0;resizeLast=0;collapsible=1;marginBottom=0;whiteSpace=wrap;html=1;fillColor=#cdeb8b;strokeColor=#36393d;" vertex="1" parent="WIyWlLk6GJQsqaUBKTNV-1">
          <mxGeometry x="681" y="-240" width="159" height="60" as="geometry" />
        </mxCell>
        <mxCell id="Pg9ErtlGWTGq2y22SoNs-19" value="" style="line;strokeWidth=1;fillColor=none;align=left;verticalAlign=middle;spacingTop=-1;spacingLeft=3;spacingRight=3;rotatable=0;labelPosition=right;points=[];portConstraint=eastwest;strokeColor=inherit;" vertex="1" parent="Pg9ErtlGWTGq2y22SoNs-18">
          <mxGeometry y="26" width="159" height="8" as="geometry" />
        </mxCell>
        <mxCell id="Pg9ErtlGWTGq2y22SoNs-20" value="+ renderAnimals()" style="text;strokeColor=none;fillColor=none;align=left;verticalAlign=top;spacingLeft=4;spacingRight=4;overflow=hidden;rotatable=0;points=[[0,0.5],[1,0.5]];portConstraint=eastwest;whiteSpace=wrap;html=1;" vertex="1" parent="Pg9ErtlGWTGq2y22SoNs-18">
          <mxGeometry y="34" width="159" height="26" as="geometry" />
        </mxCell>
        <mxCell id="Pg9ErtlGWTGq2y22SoNs-21" value="TouristView" style="swimlane;fontStyle=1;align=center;verticalAlign=top;childLayout=stackLayout;horizontal=1;startSize=26;horizontalStack=0;resizeParent=1;resizeParentMax=0;resizeLast=0;collapsible=1;marginBottom=0;whiteSpace=wrap;html=1;fillColor=#cdeb8b;strokeColor=#36393d;" vertex="1" parent="WIyWlLk6GJQsqaUBKTNV-1">
          <mxGeometry x="880" y="-240" width="160" height="60" as="geometry" />
        </mxCell>
        <mxCell id="Pg9ErtlGWTGq2y22SoNs-22" value="" style="line;strokeWidth=1;fillColor=none;align=left;verticalAlign=middle;spacingTop=-1;spacingLeft=3;spacingRight=3;rotatable=0;labelPosition=right;points=[];portConstraint=eastwest;strokeColor=inherit;" vertex="1" parent="Pg9ErtlGWTGq2y22SoNs-21">
          <mxGeometry y="26" width="160" height="8" as="geometry" />
        </mxCell>
        <mxCell id="Pg9ErtlGWTGq2y22SoNs-23" value="&lt;div&gt;+ renderTourists()&lt;/div&gt;" style="text;strokeColor=none;fillColor=none;align=left;verticalAlign=top;spacingLeft=4;spacingRight=4;overflow=hidden;rotatable=0;points=[[0,0.5],[1,0.5]];portConstraint=eastwest;whiteSpace=wrap;html=1;" vertex="1" parent="Pg9ErtlGWTGq2y22SoNs-21">
          <mxGeometry y="34" width="160" height="26" as="geometry" />
        </mxCell>
        <mxCell id="Pg9ErtlGWTGq2y22SoNs-25" value="&lt;b&gt;View&lt;/b&gt;" style="rounded=1;whiteSpace=wrap;html=1;fillColor=#d5e8d4;strokeColor=#82b366;gradientColor=#97d077;" vertex="1" parent="WIyWlLk6GJQsqaUBKTNV-1">
          <mxGeometry x="720" y="-320" width="335" height="60" as="geometry" />
        </mxCell>
        <mxCell id="Pg9ErtlGWTGq2y22SoNs-26" style="edgeStyle=orthogonalEdgeStyle;rounded=1;orthogonalLoop=1;jettySize=auto;html=1;exitX=0;exitY=0.5;exitDx=0;exitDy=0;entryX=0;entryY=0.5;entryDx=0;entryDy=0;curved=0;" edge="1" parent="WIyWlLk6GJQsqaUBKTNV-1" source="Pg9ErtlGWTGq2y22SoNs-14" target="SaCOgG8UOvRfNBqPI8a1-27">
          <mxGeometry relative="1" as="geometry">
            <Array as="points">
              <mxPoint x="-160" y="-183" />
              <mxPoint x="-160" y="648" />
            </Array>
          </mxGeometry>
        </mxCell>
        <mxCell id="Pg9ErtlGWTGq2y22SoNs-28" style="edgeStyle=orthogonalEdgeStyle;rounded=1;orthogonalLoop=1;jettySize=auto;html=1;exitX=1;exitY=0.5;exitDx=0;exitDy=0;entryX=0.997;entryY=0.225;entryDx=0;entryDy=0;entryPerimeter=0;curved=0;" edge="1" parent="WIyWlLk6GJQsqaUBKTNV-1" source="Pg9ErtlGWTGq2y22SoNs-21" target="5Qt55anMSwDAI13z4265-19">
          <mxGeometry relative="1" as="geometry">
            <Array as="points">
              <mxPoint x="1240" y="-210" />
              <mxPoint x="1240" y="1735" />
            </Array>
          </mxGeometry>
        </mxCell>
        <mxCell id="Pg9ErtlGWTGq2y22SoNs-53" style="edgeStyle=orthogonalEdgeStyle;rounded=1;orthogonalLoop=1;jettySize=auto;html=1;exitX=0.5;exitY=1;exitDx=0;exitDy=0;entryX=0.5;entryY=0;entryDx=0;entryDy=0;curved=0;" edge="1" parent="WIyWlLk6GJQsqaUBKTNV-1" source="Pg9ErtlGWTGq2y22SoNs-31" target="Pg9ErtlGWTGq2y22SoNs-41">
          <mxGeometry relative="1" as="geometry" />
        </mxCell>
        <mxCell id="Pg9ErtlGWTGq2y22SoNs-59" style="edgeStyle=orthogonalEdgeStyle;rounded=1;orthogonalLoop=1;jettySize=auto;html=1;exitX=0.5;exitY=1;exitDx=0;exitDy=0;entryX=0.5;entryY=0;entryDx=0;entryDy=0;curved=0;" edge="1" parent="WIyWlLk6GJQsqaUBKTNV-1" source="Pg9ErtlGWTGq2y22SoNs-31" target="Pg9ErtlGWTGq2y22SoNs-35">
          <mxGeometry relative="1" as="geometry" />
        </mxCell>
        <mxCell id="Pg9ErtlGWTGq2y22SoNs-61" style="edgeStyle=orthogonalEdgeStyle;rounded=0;orthogonalLoop=1;jettySize=auto;html=1;exitX=0.25;exitY=1;exitDx=0;exitDy=0;" edge="1" parent="WIyWlLk6GJQsqaUBKTNV-1" source="Pg9ErtlGWTGq2y22SoNs-31" target="Pg9ErtlGWTGq2y22SoNs-8">
          <mxGeometry relative="1" as="geometry">
            <Array as="points">
              <mxPoint x="360" y="-604" />
            </Array>
          </mxGeometry>
        </mxCell>
        <mxCell id="Pg9ErtlGWTGq2y22SoNs-62" style="edgeStyle=orthogonalEdgeStyle;rounded=1;orthogonalLoop=1;jettySize=auto;html=1;exitX=0.75;exitY=1;exitDx=0;exitDy=0;entryX=0.25;entryY=0;entryDx=0;entryDy=0;curved=0;" edge="1" parent="WIyWlLk6GJQsqaUBKTNV-1" source="Pg9ErtlGWTGq2y22SoNs-31" target="SaCOgG8UOvRfNBqPI8a1-30">
          <mxGeometry relative="1" as="geometry">
            <Array as="points">
              <mxPoint x="520" y="-560" />
              <mxPoint x="560" y="-560" />
              <mxPoint x="560" y="-340" />
              <mxPoint x="470" y="-340" />
              <mxPoint x="470" y="-80" />
              <mxPoint x="578" y="-80" />
            </Array>
          </mxGeometry>
        </mxCell>
        <mxCell id="Pg9ErtlGWTGq2y22SoNs-31" value="Controller" style="swimlane;fontStyle=1;align=center;verticalAlign=top;childLayout=stackLayout;horizontal=1;startSize=26;horizontalStack=0;resizeParent=1;resizeParentMax=0;resizeLast=0;collapsible=1;marginBottom=0;whiteSpace=wrap;html=1;fillColor=#fff2cc;gradientColor=#ffd966;strokeColor=default;" vertex="1" parent="WIyWlLk6GJQsqaUBKTNV-1">
          <mxGeometry x="340" y="-760" width="240" height="156" as="geometry" />
        </mxCell>
        <mxCell id="Pg9ErtlGWTGq2y22SoNs-33" value="" style="line;strokeWidth=1;fillColor=none;align=left;verticalAlign=middle;spacingTop=-1;spacingLeft=3;spacingRight=3;rotatable=0;labelPosition=right;points=[];portConstraint=eastwest;strokeColor=inherit;" vertex="1" parent="Pg9ErtlGWTGq2y22SoNs-31">
          <mxGeometry y="26" width="240" height="8" as="geometry" />
        </mxCell>
        <mxCell id="Pg9ErtlGWTGq2y22SoNs-34" value="&lt;div style=&quot;line-height: 150%;&quot;&gt;&lt;div&gt;+ handlePoachers()&lt;/div&gt;&lt;div&gt;+ manageRangers()&lt;/div&gt;+ handlePlayerInput()&lt;div&gt;&lt;span style=&quot;background-color: transparent; color: light-dark(rgb(0, 0, 0), rgb(255, 255, 255));&quot;&gt;+ managePurchases()&lt;/span&gt;&lt;/div&gt;&lt;div&gt;+ manageGameSpeed()&lt;/div&gt;&lt;div&gt;&lt;span style=&quot;background-color: transparent; color: light-dark(rgb(0, 0, 0), rgb(255, 255, 255));&quot;&gt;+ updateDayNightCycle()&lt;/span&gt;&lt;/div&gt;&lt;/div&gt;" style="text;strokeColor=#666666;fillColor=#f5f5f5;align=left;verticalAlign=top;spacingLeft=4;spacingRight=4;overflow=hidden;rotatable=0;points=[[0,0.5],[1,0.5]];portConstraint=eastwest;whiteSpace=wrap;html=1;fontColor=#333333;" vertex="1" parent="Pg9ErtlGWTGq2y22SoNs-31">
          <mxGeometry y="34" width="240" height="122" as="geometry" />
        </mxCell>
        <mxCell id="Pg9ErtlGWTGq2y22SoNs-35" value="RangerController" style="swimlane;fontStyle=1;align=center;verticalAlign=top;childLayout=stackLayout;horizontal=1;startSize=26;horizontalStack=0;resizeParent=1;resizeParentMax=0;resizeLast=0;collapsible=1;marginBottom=0;whiteSpace=wrap;html=1;fillColor=#fff2cc;strokeColor=default;" vertex="1" parent="WIyWlLk6GJQsqaUBKTNV-1">
          <mxGeometry x="-20" y="-455" width="160" height="60" as="geometry" />
        </mxCell>
        <mxCell id="Pg9ErtlGWTGq2y22SoNs-36" value="" style="line;strokeWidth=1;fillColor=none;align=left;verticalAlign=middle;spacingTop=-1;spacingLeft=3;spacingRight=3;rotatable=0;labelPosition=right;points=[];portConstraint=eastwest;strokeColor=inherit;" vertex="1" parent="Pg9ErtlGWTGq2y22SoNs-35">
          <mxGeometry y="26" width="160" height="8" as="geometry" />
        </mxCell>
        <mxCell id="Pg9ErtlGWTGq2y22SoNs-37" value="+ manageRangers()" style="text;strokeColor=none;fillColor=none;align=left;verticalAlign=top;spacingLeft=4;spacingRight=4;overflow=hidden;rotatable=0;points=[[0,0.5],[1,0.5]];portConstraint=eastwest;whiteSpace=wrap;html=1;" vertex="1" parent="Pg9ErtlGWTGq2y22SoNs-35">
          <mxGeometry y="34" width="160" height="26" as="geometry" />
        </mxCell>
        <mxCell id="Pg9ErtlGWTGq2y22SoNs-41" value="PoacherController" style="swimlane;fontStyle=1;align=center;verticalAlign=top;childLayout=stackLayout;horizontal=1;startSize=26;horizontalStack=0;resizeParent=1;resizeParentMax=0;resizeLast=0;collapsible=1;marginBottom=0;whiteSpace=wrap;html=1;fillColor=#fff2cc;strokeColor=default;" vertex="1" parent="WIyWlLk6GJQsqaUBKTNV-1">
          <mxGeometry x="180" y="-455" width="160" height="60" as="geometry" />
        </mxCell>
        <mxCell id="Pg9ErtlGWTGq2y22SoNs-42" value="" style="line;strokeWidth=1;fillColor=none;align=left;verticalAlign=middle;spacingTop=-1;spacingLeft=3;spacingRight=3;rotatable=0;labelPosition=right;points=[];portConstraint=eastwest;strokeColor=inherit;" vertex="1" parent="Pg9ErtlGWTGq2y22SoNs-41">
          <mxGeometry y="26" width="160" height="8" as="geometry" />
        </mxCell>
        <mxCell id="Pg9ErtlGWTGq2y22SoNs-43" value="+ controlPoachers()" style="text;strokeColor=none;fillColor=none;align=left;verticalAlign=top;spacingLeft=4;spacingRight=4;overflow=hidden;rotatable=0;points=[[0,0.5],[1,0.5]];portConstraint=eastwest;whiteSpace=wrap;html=1;" vertex="1" parent="Pg9ErtlGWTGq2y22SoNs-41">
          <mxGeometry y="34" width="160" height="26" as="geometry" />
        </mxCell>
        <mxCell id="Pg9ErtlGWTGq2y22SoNs-44" value="MapController" style="swimlane;fontStyle=1;align=center;verticalAlign=top;childLayout=stackLayout;horizontal=1;startSize=26;horizontalStack=0;resizeParent=1;resizeParentMax=0;resizeLast=0;collapsible=1;marginBottom=0;whiteSpace=wrap;html=1;fillColor=#fff2cc;strokeColor=default;" vertex="1" parent="WIyWlLk6GJQsqaUBKTNV-1">
          <mxGeometry x="380" y="-455" width="160" height="60" as="geometry" />
        </mxCell>
        <mxCell id="Pg9ErtlGWTGq2y22SoNs-45" value="" style="line;strokeWidth=1;fillColor=none;align=left;verticalAlign=middle;spacingTop=-1;spacingLeft=3;spacingRight=3;rotatable=0;labelPosition=right;points=[];portConstraint=eastwest;strokeColor=inherit;" vertex="1" parent="Pg9ErtlGWTGq2y22SoNs-44">
          <mxGeometry y="26" width="160" height="8" as="geometry" />
        </mxCell>
        <mxCell id="Pg9ErtlGWTGq2y22SoNs-46" value="+ updateMap()" style="text;strokeColor=none;fillColor=none;align=left;verticalAlign=top;spacingLeft=4;spacingRight=4;overflow=hidden;rotatable=0;points=[[0,0.5],[1,0.5]];portConstraint=eastwest;whiteSpace=wrap;html=1;" vertex="1" parent="Pg9ErtlGWTGq2y22SoNs-44">
          <mxGeometry y="34" width="160" height="26" as="geometry" />
        </mxCell>
        <mxCell id="Pg9ErtlGWTGq2y22SoNs-47" value="PlayerInputHandler" style="swimlane;fontStyle=1;align=center;verticalAlign=top;childLayout=stackLayout;horizontal=1;startSize=26;horizontalStack=0;resizeParent=1;resizeParentMax=0;resizeLast=0;collapsible=1;marginBottom=0;whiteSpace=wrap;html=1;fillColor=#fff2cc;strokeColor=default;" vertex="1" parent="WIyWlLk6GJQsqaUBKTNV-1">
          <mxGeometry x="580" y="-455" width="160" height="60" as="geometry" />
        </mxCell>
        <mxCell id="Pg9ErtlGWTGq2y22SoNs-48" value="" style="line;strokeWidth=1;fillColor=none;align=left;verticalAlign=middle;spacingTop=-1;spacingLeft=3;spacingRight=3;rotatable=0;labelPosition=right;points=[];portConstraint=eastwest;strokeColor=inherit;" vertex="1" parent="Pg9ErtlGWTGq2y22SoNs-47">
          <mxGeometry y="26" width="160" height="8" as="geometry" />
        </mxCell>
        <mxCell id="Pg9ErtlGWTGq2y22SoNs-49" value="+ processInput()" style="text;strokeColor=none;fillColor=none;align=left;verticalAlign=top;spacingLeft=4;spacingRight=4;overflow=hidden;rotatable=0;points=[[0,0.5],[1,0.5]];portConstraint=eastwest;whiteSpace=wrap;html=1;" vertex="1" parent="Pg9ErtlGWTGq2y22SoNs-47">
          <mxGeometry y="34" width="160" height="26" as="geometry" />
        </mxCell>
        <mxCell id="Pg9ErtlGWTGq2y22SoNs-50" value="AnimalController" style="swimlane;fontStyle=1;align=center;verticalAlign=top;childLayout=stackLayout;horizontal=1;startSize=26;horizontalStack=0;resizeParent=1;resizeParentMax=0;resizeLast=0;collapsible=1;marginBottom=0;whiteSpace=wrap;html=1;fillColor=#fff2cc;strokeColor=default;" vertex="1" parent="WIyWlLk6GJQsqaUBKTNV-1">
          <mxGeometry x="781" y="-455" width="160" height="60" as="geometry" />
        </mxCell>
        <mxCell id="Pg9ErtlGWTGq2y22SoNs-51" value="" style="line;strokeWidth=1;fillColor=none;align=left;verticalAlign=middle;spacingTop=-1;spacingLeft=3;spacingRight=3;rotatable=0;labelPosition=right;points=[];portConstraint=eastwest;strokeColor=inherit;" vertex="1" parent="Pg9ErtlGWTGq2y22SoNs-50">
          <mxGeometry y="26" width="160" height="8" as="geometry" />
        </mxCell>
        <mxCell id="Pg9ErtlGWTGq2y22SoNs-52" value="+ updateAnimalStates()" style="text;strokeColor=none;fillColor=none;align=left;verticalAlign=top;spacingLeft=4;spacingRight=4;overflow=hidden;rotatable=0;points=[[0,0.5],[1,0.5]];portConstraint=eastwest;whiteSpace=wrap;html=1;" vertex="1" parent="Pg9ErtlGWTGq2y22SoNs-50">
          <mxGeometry y="34" width="160" height="26" as="geometry" />
        </mxCell>
        <mxCell id="Pg9ErtlGWTGq2y22SoNs-55" style="edgeStyle=orthogonalEdgeStyle;rounded=1;orthogonalLoop=1;jettySize=auto;html=1;exitX=0.5;exitY=1;exitDx=0;exitDy=0;entryX=0.5;entryY=0;entryDx=0;entryDy=0;curved=0;" edge="1" parent="WIyWlLk6GJQsqaUBKTNV-1" source="Pg9ErtlGWTGq2y22SoNs-31" target="Pg9ErtlGWTGq2y22SoNs-44">
          <mxGeometry relative="1" as="geometry" />
        </mxCell>
        <mxCell id="Pg9ErtlGWTGq2y22SoNs-56" style="edgeStyle=orthogonalEdgeStyle;rounded=1;orthogonalLoop=1;jettySize=auto;html=1;exitX=0.5;exitY=1;exitDx=0;exitDy=0;entryX=0.626;entryY=0.009;entryDx=0;entryDy=0;entryPerimeter=0;curved=0;" edge="1" parent="WIyWlLk6GJQsqaUBKTNV-1" source="Pg9ErtlGWTGq2y22SoNs-31" target="Pg9ErtlGWTGq2y22SoNs-47">
          <mxGeometry relative="1" as="geometry" />
        </mxCell>
        <mxCell id="Pg9ErtlGWTGq2y22SoNs-58" style="edgeStyle=orthogonalEdgeStyle;rounded=1;orthogonalLoop=1;jettySize=auto;html=1;exitX=0.5;exitY=1;exitDx=0;exitDy=0;entryX=0.5;entryY=0;entryDx=0;entryDy=0;curved=0;" edge="1" parent="WIyWlLk6GJQsqaUBKTNV-1" source="Pg9ErtlGWTGq2y22SoNs-31" target="Pg9ErtlGWTGq2y22SoNs-50">
          <mxGeometry relative="1" as="geometry" />
        </mxCell>
        <mxCell id="Pg9ErtlGWTGq2y22SoNs-63" value="&lt;b&gt;Controller&lt;/b&gt;" style="rounded=1;whiteSpace=wrap;html=1;fillColor=#ffcd28;strokeColor=#d79b00;gradientColor=#ffa500;" vertex="1" parent="WIyWlLk6GJQsqaUBKTNV-1">
          <mxGeometry x="740" y="-800" width="222.5" height="60" as="geometry" />
        </mxCell>
      </root>
    </mxGraphModel>
  </diagram>
</mxfile>
